<?xml version="1.0" standalone="no"?>
<!DOCTYPE svg PUBLIC "-//W3C//DTD SVG 1.1//EN" "http://www.w3.org/Graphics/SVG/1.1/DTD/svg11.dtd" >
<svg xmlns="http://www.w3.org/2000/svg" xmlns:xlink="http://www.w3.org/1999/xlink" version="1.1">
<metadata>
Created by FontForge 20150318 at Wed Jul 22 13:29:26 2015
 By uniteet7
</metadata>
<defs>
<font id="PortLligatSans-Regular" horiz-adv-x="601" >
  <font-face 
    font-family="Port Lligat Sans"
    font-weight="400"
    font-stretch="normal"
    units-per-em="1000"
    panose-1="2 0 0 0 0 0 0 0 0 0"
    ascent="800"
    descent="-200"
    x-height="468"
    cap-height="649"
    bbox="-116 -211 839 860"
    underline-thickness="50"
    underline-position="-50"
    unicode-range="U+000D-2212"
  />
<missing-glyph horiz-adv-x="230" 
 />
    <glyph glyph-name=".notdef" horiz-adv-x="230" 
 />
    <glyph glyph-name=".null" horiz-adv-x="0" 
 />
    <glyph glyph-name="nonmarkingreturn" horiz-adv-x="333" 
 />
    <glyph glyph-name="CR" unicode="&#xd;" horiz-adv-x="313" 
 />
    <glyph glyph-name="space" unicode=" " horiz-adv-x="230" 
 />
    <glyph glyph-name="exclam" unicode="!" horiz-adv-x="270" 
d="M121 375q0 184 -26 288q30 11 58 11t52 -6q-20 -189 -20 -423q0 -33 2 -65q-19 -6 -34 -6t-34 6q2 106 2 195zM220 55q0 -30 -18 -50t-55 -20q-57 0 -57 58q0 72 73 72q57 0 57 -60z" />
    <glyph glyph-name="quotedbl" unicode="&#x22;" horiz-adv-x="351" 
d="M60 677q23 5 52.5 5t38.5 -3q-11 -121 -11 -232q-18 -6 -35.5 -6t-29.5 3q0 131 -15 233zM200 677q23 5 52.5 5t38.5 -3q-11 -121 -11 -232q-18 -6 -35.5 -6t-29.5 3q0 131 -15 233z" />
    <glyph glyph-name="numbersign" unicode="#" horiz-adv-x="763" 
d="M475 -46q-39 0 -68 19q24 90 44 180q-42 1 -93.5 1t-111.5 -2q-9 -55 -29 -196q-18 -2 -22 -2q-39 0 -68 19q18 68 43 176q-82 -3 -115 -9q-5 15 -5 39t11 49q50 -5 125 -7q24 120 38 197q-85 -3 -117 -9q-5 15 -5 39t11 49q51 -5 124 -7q16 97 30 197q8 1 34 1t55 -18
q-23 -85 -45 -182h136q40 0 70 1q17 101 30 198q8 1 34 1t55 -18q-17 -61 -44 -178q97 6 116 10q5 -15 5 -39t-11 -49q-69 5 -126 6q-23 -113 -38 -197q99 6 118 10q5 -15 5 -39t-11 -49q-67 5 -124 6q-9 -55 -29 -195q-18 -2 -22 -2zM395 219q41 0 71 1q22 103 39 202
q-43 1 -95 1t-114 -2q-20 -94 -39 -202h138z" />
    <glyph glyph-name="dollar" unicode="$" horiz-adv-x="550" 
d="M314 746q-8 -82 -9 -93q83 -8 122.5 -56t39.5 -119q0 -12 -3 -25q-26 -9 -52 -9t-38 2q1 8 1 21q0 46 -20 79t-55 44q-7 -100 -10 -228q37 -19 54 -28.5t47.5 -32t45.5 -41.5q40 -52 40 -120t-53.5 -111.5t-131.5 -43.5h-5q2 -51 4 -64q-23 -13 -43.5 -13t-33.5 3l7 80
q-93 15 -151 70q4 24 16.5 44t23.5 27l10 8q42 -59 105 -81q7 110 12 236q-47 25 -76 46t-53.5 60.5t-24.5 96.5t38.5 102t118.5 53l-3 83q19 13 40 13t37 -3zM287 65v-16q54 1 79.5 29t25.5 66.5t-26.5 67t-77.5 56.5q-1 -68 -1 -203zM242 542v52q-73 -14 -73 -94
q0 -60 71 -108q2 52 2 150z" />
    <glyph glyph-name="percent" unicode="%" horiz-adv-x="889" 
d="M335 -46q-34 0 -57 19q124 292 254 713q16 2 26 2q28 0 53 -18q-121 -279 -255 -714q-16 -2 -21 -2zM839 193q0 -202 -147 -202t-147 202t147 202t147 -202zM615 193q0 -149 77.5 -149t77.5 149t-77.5 149t-77.5 -149zM344 451q0 -202 -147 -202t-147 202t147 202
t147 -202zM120 451q0 -149 77.5 -149t77.5 149t-77.5 149t-77.5 -149z" />
    <glyph glyph-name="ampersand" unicode="&#x26;" horiz-adv-x="594" 
d="M127 609q54 46 120 46t111.5 -32t45.5 -93q0 -7 -2 -23q-26 -8 -46.5 -8t-44.5 2q1 7 1 19q0 34 -17 56.5t-54 22.5t-61 -40t-24 -82q0 -74 42 -99.5t144 -25.5q33 0 51 1l-5 73q25 8 52.5 8t45.5 -4l-9 -78q21 1 91 5q6 -14 6 -29t-4 -37q-38 1 -97 5q-2 -19 -2 -58
v-187q-69 -66 -189.5 -66t-176 51.5t-55.5 136.5q0 116 113 159q-90 37 -90 148q0 83 54 129zM395 93l2 182v20q-64 2 -86 2q-97 0 -135.5 -25t-38.5 -99q0 -53 35 -88.5t104 -35.5t119 44z" />
    <glyph glyph-name="quotesingle" unicode="'" horiz-adv-x="211" 
d="M60 677q23 5 52.5 5t38.5 -3q-11 -121 -11 -232q-18 -6 -35.5 -6t-29.5 3q0 131 -15 233z" />
    <glyph glyph-name="parenleft" unicode="(" horiz-adv-x="309" 
d="M147 329q0 -215 132 -389q-44 -14 -65 -14t-28 1q-121 180 -121 402.5t121 402.5q7 1 28 1t65 -14q-132 -175 -132 -390z" />
    <glyph glyph-name="parenright" unicode=")" horiz-adv-x="309" 
d="M30 719q44 14 65 14t28 -1q121 -180 121 -402.5t-121 -402.5q-7 -1 -28 -1t-65 14q132 174 132 389t-132 390z" />
    <glyph glyph-name="asterisk" unicode="*" horiz-adv-x="398" 
d="M158 670q21 5 45.5 5t33.5 -5q-7 -55 -9 -115q55 20 107 46q4 -7 13 -28.5t10 -47.5q-58 -7 -117 -26q39 -51 80 -89q-43 -43 -64 -47q-36 69 -61 102q-28 -39 -58 -100q-28 12 -45 24.5t-20 19.5q46 48 77 91q-52 17 -112 25q1 26 10.5 49t12.5 27q54 -28 110 -47
q-1 48 -13 116z" />
    <glyph glyph-name="plus" unicode="+" 
d="M259 534q22 7 48 7t40 -3q-5 -17 -9.5 -80.5t-4.5 -97.5q34 0 97.5 4.5t80.5 9.5q3 -14 3 -40t-7 -48q-76 7 -174 9q0 -108 9 -174q-22 -7 -48 -7t-40 3q11 44 14 178q-134 -3 -178 -14q-3 14 -3 40t7 48q66 -9 174 -9q-2 98 -9 174z" />
    <glyph glyph-name="comma" unicode="," horiz-adv-x="261" 
d="M75 -152q-5 15 -5 24.5t3 24.5q67 0 67 69q0 25 -26 28q-38 3 -38 49q0 35 16.5 53.5t59.5 18.5q59 0 59 -80t-32 -133.5t-104 -53.5z" />
    <glyph glyph-name="hyphen" unicode="-" horiz-adv-x="354" 
d="M66 196q-6 14 -6 31t6 41q189 13 222 21q6 -14 6 -31t-6 -41q-189 -13 -222 -21z" />
    <glyph glyph-name="period" unicode="." horiz-adv-x="270" 
d="M220 55q0 -30 -18 -50t-55 -20q-57 0 -57 58q0 72 73 72q57 0 57 -60z" />
    <glyph glyph-name="slash" unicode="/" horiz-adv-x="566" 
d="M162 -46q-39 0 -66 19q150 302 297 713q18 2 40.5 2t51.5 -18q-148 -292 -298 -714q-18 -2 -25 -2z" />
    <glyph glyph-name="zero" unicode="0" horiz-adv-x="587" 
d="M527 320q0 -335 -233.5 -335t-233.5 335t233.5 335t233.5 -335zM145 320q0 -270 148.5 -270t148.5 270t-148.5 270t-148.5 -270z" />
    <glyph glyph-name="one" unicode="1" horiz-adv-x="375" 
d="M217 648q9 1 22 1t24 -1t19 -1q-14 -108 -14 -349.5t17 -295.5q-33 -10 -61 -10t-45 2q14 117 14 305t-6 254q-112 -74 -131 -93q-39 43 -46 80q64 26 207 108z" />
    <glyph glyph-name="two" unicode="2" horiz-adv-x="538" 
d="M115 607q51 48 142.5 48t149.5 -45.5t58 -129.5q0 -49 -33.5 -106.5t-75.5 -101.5q-146 -153 -182 -203q33 -1 90.5 -1t127 4.5t87.5 9.5q4 -18 4 -40t-8 -48q-74 9 -157 9t-164 -5t-100 -9q-4 12 -4 35q45 81 158 197q42 43 82 87q87 96 87 169q0 44 -27 81.5t-81 37.5
t-88.5 -34t-34.5 -90q0 -13 1 -21q-10 -2 -36.5 -2t-43.5 9q-3 12 -3 25q0 76 51 124z" />
    <glyph glyph-name="three" unicode="3" horiz-adv-x="529" 
d="M240 49q77 0 114.5 35.5t37.5 88.5q0 94 -82 123q-56 -4 -84 -4t-51 3q-5 17 -5 35t10 35q23 -7 78 -7t85 34.5t30 81t-29 84.5t-83.5 38t-89 -34t-34.5 -90q0 -13 1 -21q-10 -2 -36.5 -2t-43.5 9q-3 12 -3 25q0 76 51 124t142.5 48t149.5 -45.5t58 -129.5
q0 -111 -90 -148q113 -43 113 -159q0 -85 -58 -136.5t-184.5 -51.5t-198.5 66q4 24 15 43.5t21 27.5l9 8q26 -39 69.5 -60t87.5 -21z" />
    <glyph glyph-name="four" unicode="4" horiz-adv-x="511" 
d="M264 639q30 10 62 10t84 -4q-14 -111 -14 -250t1 -181q50 4 60 7q4 -18 4 -40t-8 -48q-18 3 -53 5q5 -114 13 -136q-33 -10 -61 -10t-45 2q8 71 11 147q-31 1 -142 1t-163 -6q-3 9 -3 36q13 23 49.5 84.5t49 83.5t40 70.5t42.5 77.5q46 88 73 151zM118 208q38 -1 87 -1
t115 2q1 34 1 164.5t-8 205.5q-66 -98 -195 -371z" />
    <glyph glyph-name="five" unicode="5" horiz-adv-x="531" 
d="M170 386q50 9 96.5 9t93 -18.5t72.5 -49.5q49 -60 49 -145t-58.5 -141t-184.5 -56t-198 66q4 24 15 43.5t21 27.5l9 8q26 -39 69.5 -60t87.5 -21q76 0 114 40t38 96.5t-33.5 101.5t-113 45t-123.5 -30q-28 0 -44 6q13 37 20 129.5t7 143t-1 65.5q91 -7 179.5 -7t173.5 9
q4 -18 4 -40t-8 -48q-17 5 -78.5 9.5t-97.5 4t-91 -0.5q-16 -101 -18 -187z" />
    <glyph glyph-name="six" unicode="6" horiz-adv-x="549" 
d="M284 655q93 0 139 -46t48 -118q0 -11 -3 -24q-26 -8 -51 -8t-36 2q1 7 1 19q0 53 -26.5 84t-74.5 31q-61 0 -99.5 -72t-38.5 -196q54 71 159 71q79 0 135.5 -54t56.5 -146.5t-62.5 -152.5t-156.5 -60q-120 0 -167.5 76.5t-47.5 237.5q0 186 59 275q23 34 65.5 57.5
t99.5 23.5zM367.5 86q41.5 36 41.5 106.5t-34 107.5t-89.5 37t-97 -39.5t-41.5 -108.5t35.5 -104t89.5 -35t95.5 36z" />
    <glyph glyph-name="seven" unicode="7" horiz-adv-x="446" 
d="M302 573q-25 1 -73.5 1t-119.5 -4.5t-89 -9.5q-4 18 -4 40t8 48q74 -9 157.5 -9t154.5 4.5t89 9.5q4 -18 4 -35q-80 -147 -148.5 -324t-83.5 -292q-29 -10 -53.5 -10t-48.5 4q59 196 207 577z" />
    <glyph glyph-name="eight" unicode="8" horiz-adv-x="565" 
d="M187 333q-109 63 -109 158q0 71 50.5 117.5t155.5 46.5q205 0 205 -168q0 -83 -101 -167q117 -62 117 -160q0 -84 -67 -129.5t-156 -45.5q-110 0 -172 51q-50 41 -50 121t127 176zM282 59q64 0 99.5 33t35.5 71q0 31 -16 47.5t-25 24.5t-30 19l-32 16q-10 6 -36.5 18
t-36.5 17q-93 -76 -93 -150q0 -96 134 -96zM217 406q29 -19 48.5 -29t63.5 -29q41 27 59 66t18 73q0 109 -121 109q-49 0 -85 -25t-36 -77t53 -88z" />
    <glyph glyph-name="nine" unicode="9" horiz-adv-x="549" 
d="M260 -15q-96 0 -143 46t-49 118q0 11 3 24q26 8 51 8t36 -2q-1 -7 -1 -19q0 -53 27.5 -84t77.5 -31q144 0 144 268q-54 -71 -159 -71q-79 0 -135.5 54t-56.5 146.5t62.5 152.5t156.5 60q120 0 167.5 -79.5t47.5 -244.5q0 -346 -229 -346zM360.5 339q41.5 36 41.5 106.5
t-34 107.5t-89.5 37t-97 -39.5t-41.5 -108t35 -104t89.5 -35.5t96 36z" />
    <glyph glyph-name="colon" unicode=":" horiz-adv-x="264" 
d="M217 55q0 -30 -18 -50t-55 -20q-57 0 -57 58q0 72 73 72q57 0 57 -60zM217 418q0 -30 -18 -50t-55 -20q-57 0 -57 58q0 72 73 72q57 0 57 -60z" />
    <glyph glyph-name="semicolon" unicode=";" horiz-adv-x="271" 
d="M217 418q0 -30 -18 -50t-55 -20q-57 0 -57 58q0 72 73 72q57 0 57 -60zM86 -152q-5 15 -5 24.5t3 24.5q67 0 67 69q0 25 -26 28q-38 3 -38 49q0 35 16.5 53.5t59.5 18.5q59 0 59 -80t-32 -133.5t-104 -53.5z" />
    <glyph glyph-name="less" unicode="&#x3c;" 
d="M74 287q-7 14 -7 39.5t7 40.5q124 47 294 151q58 35 72 48q9 -11 21.5 -35.5t16.5 -44.5q-76 -30 -187.5 -88t-134.5 -71q47 -26 142 -75.5t180 -83.5q-4 -20 -16.5 -44.5t-21.5 -35.5q-14 13 -72 48q-167 102 -294 151z" />
    <glyph glyph-name="equal" unicode="=" 
d="M507 386q-92 9 -178.5 9t-153.5 -4.5t-85 -9.5q-3 13 -3 39.5t7 48.5q69 -9 167 -9q200 0 250 14q3 -13 3 -39.5t-7 -48.5zM507 186q-92 9 -178.5 9t-153.5 -4.5t-85 -9.5q-3 14 -3 40t7 48q69 -9 167 -9q200 0 250 14q3 -13 3 -39.5t-7 -48.5z" />
    <glyph glyph-name="greater" unicode="&#x3e;" 
d="M471 367q7 -15 7 -40.5t-7 -39.5q-127 -49 -295 -151q-57 -35 -71 -48q-9 11 -21.5 35.5t-16.5 44.5q85 34 180 83.5t142 75.5q-46 26 -110 58q-127 67 -212 101q4 20 16.5 44.5t21.5 35.5q14 -13 71 -48q168 -102 295 -151z" />
    <glyph glyph-name="question" unicode="?" horiz-adv-x="459" 
d="M95 639l1 11q53 23 131 23t132.5 -40.5t54.5 -102.5q0 -36 -18 -66t-43.5 -50.5t-50.5 -39.5q-62 -46 -62 -91t28 -77q-26 -32 -62 -35q-34 68 -34 118t58 108q8 8 33.5 31.5t35.5 35.5q32 36 32 71.5t-28.5 57.5t-81 22t-106.5 -40q-20 33 -20 64zM293 55q0 -30 -18 -50
t-55 -20q-57 0 -57 58q0 72 73 72q57 0 57 -60z" />
    <glyph glyph-name="at" unicode="@" horiz-adv-x="873" 
d="M557 -34q4 -8 4 -32t-8 -46q-72 -25 -178 -25q-148 0 -223.5 77.5t-75.5 229.5q0 223 108.5 344t308.5 121q156 0 238.5 -80.5t82.5 -232.5q0 -118 -70 -205t-166 -87q-45 0 -59 67q-75 -67 -145 -67q-52 0 -79.5 41.5t-27.5 119.5q0 127 53 204.5t140.5 77.5t170.5 -23
q-43 -182 -43 -308q0 -51 29 -51q44 0 81.5 72t37.5 156q0 131 -60.5 193.5t-188.5 62.5q-160 0 -244.5 -103.5t-84.5 -298.5q0 -246 206 -246q79 0 193 39zM455 423q-49 0 -80 -63t-31 -162t64 -99q24 0 54.5 15t54.5 39q4 30 29 249q-42 21 -91 21z" />
    <glyph glyph-name="A" unicode="A" horiz-adv-x="562" 
d="M396 178q-49 3 -122.5 3t-124.5 -4q-30 -124 -44 -187q-18 -2 -35.5 -2t-55.5 10q163 434 190 641q29 10 76 10t76 -10q27 -207 190 -641q-36 -10 -63.5 -10t-42.5 2q-17 75 -44 188zM166 247q46 -1 97 -1t115 2q-45 175 -99 330h-6q-59 -148 -107 -331z" />
    <glyph glyph-name="B" unicode="B" horiz-adv-x="575" 
d="M103 13q14 117 14 317.5t-17 296.5q79 28 185.5 28t156.5 -48t50 -140.5t-64 -140.5q107 -42 107 -153q0 -188 -229 -188q-121 0 -203 28zM250 372q22 -15 67.5 -15t66.5 31.5t21 83.5t-28.5 89t-94.5 37q-37 0 -82 -18q-8 -81 -8 -239t8 -264q58 -23 107 -23
q141 0 141 119q0 101 -93 122q-27 -5 -57 -5t-69 15q0 46 21 67z" />
    <glyph glyph-name="C" unicode="C" horiz-adv-x="536" 
d="M303 655q100 0 149 -49.5t49 -127.5q0 -13 -3 -25q-17 -9 -41.5 -9t-48.5 2q1 8 1 21q0 59 -28 94t-78 35q-166 0 -166 -268.5t166 -268.5q39 0 81 19t71 52q31 -25 40 -79q-89 -66 -192 -66q-121 0 -181 67q-50 55 -62 168q-5 46 -5 107q0 328 248 328z" />
    <glyph glyph-name="D" unicode="D" horiz-adv-x="607" 
d="M299 655q74 0 127 -27.5t82 -75.5q54 -93 54 -227q0 -186 -74 -269q-29 -31 -77 -51t-112 -20q-121 0 -196 28q14 117 14 317.5t-17 296.5q86 28 199 28zM299 56q177 0 177 269q0 77 -16 135t-57 97t-98.5 39t-105.5 -19q-7 -80 -7 -244.5t8 -255.5q47 -21 99 -21z" />
    <glyph glyph-name="E" unicode="E" horiz-adv-x="519" 
d="M195 76q35 -3 121 -3t139 9q8 -26 8 -50.5t-4 -42.5q-19 5 -80 9.5t-137 4.5t-143 -7q14 138 14 335t-19 315q67 -7 144 -7t137.5 4.5t78.5 9.5q4 -18 4 -40t-8 -48q-53 9 -137 9t-119 -3q-6 -57 -6 -206q21 -1 101 -1t130 11q5 -32 5 -52.5t-1 -33.5q-47 8 -119 8
t-116 -2q0 -131 7 -219z" />
    <glyph glyph-name="F" unicode="F" horiz-adv-x="477" 
d="M411 283q-43 7 -124 7t-99 -1q2 -242 17 -287q-33 -10 -52.5 -10t-53.5 2q14 117 14 325.5t-19 326.5q67 -7 139 -7t132.5 4.5t78.5 9.5q4 -18 4 -40t-8 -48q-53 9 -132 9t-114 -3q-6 -60 -6 -220h44q135 0 175 10q5 -28 5 -47t-1 -31z" />
    <glyph glyph-name="G" unicode="G" horiz-adv-x="570" 
d="M303 -15q-154 0 -205 105q-25 52 -34 106.5t-9 120.5t7.5 113t25.5 89.5t46 72.5q60 63 164.5 63t153.5 -49.5t49 -127.5q0 -12 -3 -25q-26 -9 -52 -9t-38 2q1 8 1 21q0 59 -28 94t-78 35q-86 0 -126 -73t-40 -197q0 -193 81 -245q35 -22 85 -22q82 0 137 46
q-1 80 -7 137q-116 -2 -161 -11q-5 32 -5 52.5t1 33.5q47 -8 126.5 -8t120.5 3q-10 -100 -10 -261q-89 -66 -202 -66z" />
    <glyph glyph-name="H" unicode="H" horiz-adv-x="647" 
d="M460 281q-64 7 -145 7t-130 -7q2 -234 17 -279q-33 -10 -52.5 -10t-53.5 2q14 117 14 333t-17 312q26 10 52 10t54 -2q-14 -112 -14 -288q54 -6 130 -6t145 8q-2 191 -17 278q26 10 52 10t54 -2q-14 -111 -14 -351t17 -294q-33 -10 -52.5 -10t-53.5 2q12 101 14 287z" />
    <glyph glyph-name="I" unicode="I" horiz-adv-x="317" 
d="M106 -6q14 117 14 333t-17 312q26 10 52 10t54 -2q-14 -111 -14 -351t17 -294q-33 -10 -61 -10t-45 2z" />
    <glyph glyph-name="J" unicode="J" horiz-adv-x="283" 
d="M22 -106q42 0 59 30q20 35 23 73q4 49 4 124q0 422 -17 518q26 10 52 10t54 -2q-14 -111 -14 -545q0 -115 -12.5 -164.5t-30.5 -71.5q-37 -46 -116 -46q-34 0 -73 12.5t-67 33.5q4 24 14 44t18 28l8 7q38 -51 98 -51z" />
    <glyph glyph-name="K" unicode="K" horiz-adv-x="534" 
d="M417 648q7 1 30 1t56 -17q-132 -168 -213 -293q96 -154 240 -334q-34 -17 -67.5 -17t-44.5 1q-42 75 -116.5 188.5t-92.5 141.5q19 30 67 99q103 148 141 230zM96 -6q14 117 14 333t-17 312q26 10 51 10t36 -1t19 -1q-14 -111 -14 -351t17 -294q-33 -10 -61 -10t-45 2z
" />
    <glyph glyph-name="L" unicode="L" horiz-adv-x="443" 
d="M97 -4q14 138 14 342.5t-17 300.5q26 10 52 10t54 -2q-14 -111 -14 -298.5t7 -272.5q35 -3 106 -3t124 9q8 -26 8 -50.5t-4 -42.5q-19 5 -80 9.5t-122 4.5t-128 -7z" />
    <glyph glyph-name="M" unicode="M" horiz-adv-x="768" 
d="M96 -6q14 117 14 333t-17 312q26 10 44.5 10t46.5 -2q17 -92 202 -437q151 295 177 429q26 10 52 10t54 -2q-14 -111 -14 -351t17 -294q-33 -10 -52.5 -10t-53.5 2q14 117 14 272t-2 200q-131 -265 -165 -349q-27 -8 -43 -8t-30 1q-29 74 -63.5 138t-65 119t-41.5 76
v-105q0 -282 17 -336q-30 -10 -43.5 -10t-47.5 2z" />
    <glyph glyph-name="N" unicode="N" horiz-adv-x="650" 
d="M97 -6q14 117 14 333t-17 312q26 10 44.5 10t46.5 -2q19 -72 109.5 -218.5t188.5 -283.5q3 84 3 162q0 236 -17 332q26 10 44.5 10t46.5 -2q-14 -111 -14 -351t17 -294q-30 -10 -43.5 -10t-47.5 2q-7 31 -59 112.5t-129.5 194.5t-111.5 169q-1 -43 -1 -132
q0 -282 17 -336q-30 -10 -43.5 -10t-47.5 2z" />
    <glyph glyph-name="O" unicode="O" 
d="M55 327q0 328 245.5 328t245.5 -328q0 -60 -4.5 -105t-20 -92t-41.5 -77t-71.5 -49t-108 -19t-108 19t-71.5 49t-41.5 77t-20 92t-4.5 105zM216 81q34 -22 84.5 -22t85 22t51.5 63q30 71 30 182q0 270 -166.5 270t-166.5 -270q0 -193 82 -245z" />
    <glyph glyph-name="P" unicode="P" horiz-adv-x="531" 
d="M249 331q29 -29 69.5 -29t65.5 25q40 41 40 122q0 149 -132 149q-42 0 -94 -22q-7 -79 -7 -299.5t17 -274.5q-33 -10 -61 -10t-45 2q14 117 14 327t-17 306q84 28 198 28t164 -53.5t50 -150t-50.5 -156.5t-153.5 -60q-40 0 -79 15q0 27 7 50t14 31z" />
    <glyph glyph-name="Q" unicode="Q" 
d="M55 327q0 328 245.5 328t245.5 -328q0 -68 -6.5 -118t-25.5 -99q-37 -100 -153 -120q79 -104 103 -135q-34 -17 -67 -17t-44 1q-28 59 -87 148q-103 10 -154 77q-43 58 -53 163q-4 43 -4 100zM216 81q34 -22 84.5 -22t85 22t51.5 63q30 71 30 182q0 270 -166.5 270
t-166.5 -270q0 -193 82 -245z" />
    <glyph glyph-name="R" unicode="R" horiz-adv-x="564" 
d="M249 349q29 -27 69.5 -27t65.5 24q40 38 40 113q0 139 -132 139q-42 0 -94 -20q-7 -80 -7 -301t17 -275q-33 -10 -61 -10t-45 2q14 117 14 327t-17 306q84 28 194 28q218 0 218 -196q0 -74 -37 -127t-112 -67q106 -169 176 -260q-34 -17 -67 -17t-44 1q-53 112 -156 274
q-20 3 -43 11q0 25 7 46.5t14 28.5z" />
    <glyph glyph-name="S" unicode="S" horiz-adv-x="477" 
d="M171.5 73.5q43.5 -24.5 94.5 -24.5t77.5 28t26.5 68t-32 72t-77.5 55t-90.5 48.5t-77 68.5t-32 108t46.5 111.5t145.5 46.5t145.5 -49t46.5 -128q0 -12 -3 -25q-26 -9 -52 -9t-38 2q1 8 1 21q0 58 -30.5 93.5t-76.5 35.5t-72.5 -24.5t-26.5 -69t31.5 -77t77 -56.5
t91 -50.5t77 -71t31.5 -110t-53.5 -109t-131.5 -43.5q-141 0 -222 76q4 24 16.5 44t23.5 27l10 8q30 -42 73.5 -66.5z" />
    <glyph glyph-name="T" unicode="T" horiz-adv-x="481" 
d="M280 574q-5 -78 -5 -298t17 -274q-33 -10 -61 -10t-45 2q14 117 14 306.5t-7 273.5q-137 -6 -177 -14q-4 14 -4 38t8 50q74 -9 179 -9q212 0 262 14q4 -18 4 -40t-8 -48q-77 7 -177 9z" />
    <glyph glyph-name="U" unicode="U" horiz-adv-x="644" 
d="M546 277q0 -60 -4 -100.5t-17.5 -79.5t-37.5 -62q-52 -50 -162 -50q-141 0 -185 79q-22 42 -29.5 90t-7.5 123q0 266 -17 362q26 10 52 10t54 -2q-14 -111 -14 -371q0 -112 31 -164.5t123 -52.5t121.5 52.5t29.5 164.5q0 267 -17 363q26 10 46 10t48 -2
q-14 -111 -14 -370z" />
    <glyph glyph-name="V" unicode="V" horiz-adv-x="570" 
d="M337 0q-36 -9 -65.5 -9t-38.5 1q-42 150 -104.5 342.5t-107.5 294.5q42 20 74 20t43 -1q14 -107 59 -275t93 -286h6q43 106 90.5 289t51.5 266q14 3 28 3q49 0 81 -20q-28 -68 -106.5 -296.5t-103.5 -328.5z" />
    <glyph glyph-name="W" unicode="W" horiz-adv-x="814" 
d="M307 0q-36 -9 -65.5 -9t-38.5 1q-12 42 -49 188q-84 339 -133 449q42 20 74 20t43 -1q46 -351 122 -561h6q31 76 59.5 210.5t43.5 252.5q30 12 49.5 12t35.5 -2q45 -304 110 -473h6q39 111 73 286.5t39 268.5q14 3 28 3q49 0 81 -20q-18 -45 -83.5 -274t-96.5 -351
q-36 -9 -65.5 -9t-38.5 1q-14 48 -47.5 181t-49.5 194h-5q-67 -243 -98 -367z" />
    <glyph glyph-name="X" unicode="X" horiz-adv-x="537" 
d="M398 648q8 1 39 1t68 -17q-115 -162 -190 -301q100 -177 200 -322q-29 -17 -82 -17q-20 0 -31 1q-77 156 -141 271q-90 -150 -135 -271q-8 -1 -39 -1t-68 17q128 181 204 321q-98 171 -186 302q34 17 67.5 17t44.5 -1q60 -124 131 -254q59 95 118 254z" />
    <glyph glyph-name="Y" unicode="Y" horiz-adv-x="466" 
d="M1 634q40 17 72.5 17t43.5 -1q6 -75 47 -172q16 -36 42.5 -95t39.5 -90h4q35 67 70.5 176.5t39.5 179.5q18 2 27 2q47 0 78 -17q-1 -3 -33.5 -73.5t-57.5 -126.5q-75 -168 -93 -240q5 -163 16 -192q-33 -10 -61 -10t-45 2q10 82 13 203q-23 73 -67.5 165.5t-84 170
t-51.5 101.5z" />
    <glyph glyph-name="Z" unicode="Z" horiz-adv-x="486" 
d="M270 573q-141 0 -216 -20q-9 30 -9 48t6 45q52 -7 199 -7t201 6q5 -10 5 -38q-43 -81 -160 -287t-138 -244q46 -3 140 -3t147 9q8 -26 8 -50.5t-4 -42.5q-18 5 -99 9.5t-163.5 4.5t-149.5 -7q-6 15 -7 36q42 66 157.5 265.5t162.5 275.5h-80z" />
    <glyph glyph-name="bracketleft" unicode="[" horiz-adv-x="329" 
d="M301 16q8 -26 8 -48t-4 -40q-46 12 -114 12t-116 -5q16 134 16 412t-16 377q48 -5 116 -5t114 12q4 -18 4 -40t-8 -48q-47 8 -126 8q-6 -63 -6 -323.5t6 -319.5q79 0 126 8z" />
    <glyph glyph-name="backslash" unicode="\" horiz-adv-x="566" 
d="M96 670q29 18 55.5 18t35.5 -1q146 -407 298 -714q-27 -19 -66 -19q-7 0 -25 2q-150 422 -298 714z" />
    <glyph glyph-name="bracketright" unicode="]" horiz-adv-x="329" 
d="M28 643q-8 26 -8 48t4 40q46 -12 114 -12t116 5q-16 -134 -16 -412t16 -377q-48 5 -116 5t-114 -12q-4 18 -4 40t8 48q47 -8 126 -8q6 63 6 323.5t-6 319.5q-79 0 -126 -8z" />
    <glyph glyph-name="asciicircum" unicode="^" 
d="M229 622q12 6 41.5 6t42.5 -6q23 -59 82 -169q49 -99 67 -124q-7 -6 -28 -17t-36 -13q-28 68 -55 116q-58 109 -72 132q-76 -129 -127 -248q-15 2 -36 13t-28 17q20 30 67 124q59 110 82 169z" />
    <glyph glyph-name="underscore" unicode="_" horiz-adv-x="502" 
d="M474 -89q-98 9 -197.5 9t-166.5 -5t-86 -9q-4 14 -4 38t8 50q74 -9 175 -9t179 4.5t96 9.5q4 -18 4 -40t-8 -48z" />
    <glyph glyph-name="grave" unicode="`" horiz-adv-x="424" 
d="M294 528q-124 51 -184 75q1 28 10 44.5t30 34.5q46 -39 95.5 -71.5t68.5 -45.5q-5 -21 -20 -37z" />
    <glyph glyph-name="a" unicode="a" horiz-adv-x="473" 
d="M209 219q-36 0 -58.5 -19.5t-22.5 -60.5q0 -82 71 -82q28 0 57 14t45 33q5 63 5 80q-41 35 -97 35zM388 345l-4 -144q0 -83 17 -198q-30 -9 -52 -9t-42 2l-3 48q-76 -59 -134.5 -59t-89 37.5t-30.5 107t45.5 105.5t107.5 36t107 -24q1 20 1 44t-1.5 42t-9.5 42
q-14 47 -73 47q-74 0 -74 -81l1 -17q-22 -2 -41 -2t-45 8q-2 16 -2 23q0 63 46 94t119.5 31t115 -33.5t41.5 -99.5z" />
    <glyph glyph-name="b" unicode="b" horiz-adv-x="481" 
d="M57 11q15 136 15 303.5t-3.5 234.5t-14.5 123q26 10 52 10t54 -2q-15 -128 -15 -270q70 68 140.5 68t108 -57t37.5 -163q0 -141 -48.5 -207t-152.5 -66q-65 0 -173 26zM346 271q0 143 -85 143q-59 0 -116 -65v-269q47 -23 97 -23q104 0 104 214z" />
    <glyph glyph-name="c" unicode="c" horiz-adv-x="430" 
d="M229 478q64 0 109.5 -32t45.5 -93q0 -7 -2 -23q-26 -8 -45 -8t-41 2q1 7 1 19q0 33 -19.5 56t-55.5 23q-95 0 -95 -182.5t104 -182.5q50 0 122 62q29 -30 37 -79q-83 -55 -166 -55q-101 0 -140 68.5t-39 181t43 178t141 65.5z" />
    <glyph glyph-name="d" unicode="d" horiz-adv-x="499" 
d="M338 390q-63 29 -99.5 29t-58 -19t-30.5 -52q-15 -56 -15 -128q0 -158 85 -158q30 0 62 17.5t54 42.5q2 83 2 268zM426 680q-15 -129 -15 -311t3 -233t15 -129q-31 -10 -60 -10t-38 1l2 52q-69 -65 -142 -65q-43 0 -72.5 23.5t-43.5 62.5q-25 70 -25 154q0 253 184 253
q50 0 103 -24q-2 136 -17 218q22 10 75 10q6 0 16.5 -1t14.5 -1z" />
    <glyph glyph-name="e" unicode="e" horiz-adv-x="451" 
d="M388 246q-75 -24 -149.5 -24t-111.5 5q0 -90 29 -131q27 -39 84 -39t124 62q29 -30 37 -79q-81 -55 -169 -55q-105 0 -146 68.5t-41 181.5t45.5 178t148.5 65q72 0 115.5 -43.5t44 -103t-10.5 -85.5zM232 422q-92 0 -104 -137q43 -5 97.5 -5t85.5 10q4 36 4 37
q0 39 -20 67t-63 28z" />
    <glyph glyph-name="f" unicode="f" horiz-adv-x="331" 
d="M100 208l-3 200q-40 0 -57 -1q-6 16 -6 31.5t2 23.5h58q-1 13 -1 40q0 173 139 173q58 0 103 -31q0 -57 -33 -83q-31 54 -74 54q-62 0 -62 -119q0 -22 1 -33q84 2 125 6q6 -13 6 -28.5t-4 -37.5q-38 2 -122 4v-94l1 -76q0 -139 18 -231q-34 -10 -61 -10t-45 4
q15 155 15 208z" />
    <glyph glyph-name="g" unicode="g" horiz-adv-x="466" 
d="M220 478q50 0 87 -16v16q0 40 16.5 60t57.5 20q7 0 25 -2q2 -16 2 -32.5t-6 -48.5q-7 1 -22 1t-22 -9.5t-8 -31.5l-4 1q43 -43 43 -128q0 -78 -31 -130q-35 -58 -138 -58q-43 0 -70 10q-21 -37 -31 -81q17 -3 36 -3t76 7t82 7q52 0 84 -26t32 -80t-35 -94
q-61 -70 -190 -70q-87 0 -133 22t-46 82q0 16 2 27q21 8 43.5 8t48.5 -4q-2 -8 -2 -26.5t23 -36t78 -17.5t94.5 22t39.5 66q0 49 -53 49q-26 0 -82 -6.5t-88.5 -6.5t-54 13.5t-21.5 41.5q0 53 51 130q-53 43 -53 154q0 170 169 170zM220 189q88 0 88 118t-88 118t-88 -118
t88 -118z" />
    <glyph glyph-name="h" unicode="h" horiz-adv-x="533" 
d="M443 334l-1 -81q0 -131 20 -244q-33 -13 -64.5 -13t-43.5 2q12 136 12 240t-16.5 140t-56.5 36q-54 0 -120 -66q0 -283 18 -342q-33 -10 -52.5 -10t-53.5 2q15 130 15 308.5t-3 236.5t-15 129q26 10 52 10t54 -2q-15 -120 -15 -273q30 32 72 51.5t79 19.5q61 0 90 -35
t29 -109z" />
    <glyph glyph-name="i" unicode="i" horiz-adv-x="263" 
d="M173 256q0 -164 18 -250q-36 -10 -65 -10t-41 2q15 136 15 249.5t-18 210.5q34 10 61 10t45 -4q-15 -155 -15 -208zM192 613q0 -62 -64 -62q-50 0 -50 51q0 63 64 63q50 0 50 -52z" />
    <glyph glyph-name="j" unicode="j" horiz-adv-x="254" 
d="M175 256l3 -269q0 -197 -135 -197q-58 0 -103 32q0 57 33 83q11 -16 32 -28.5t41 -12.5q56 0 56 140v223q0 139 -18 231q34 10 61 10t45 -4q-15 -155 -15 -208zM194 613q0 -62 -64 -62q-50 0 -50 51q0 63 64 63q50 0 50 -52z" />
    <glyph glyph-name="k" unicode="k" horiz-adv-x="476" 
d="M78 -2q15 130 15 308.5t-3 236.5t-15 129q26 10 52 10t54 -2q-15 -123 -15 -368t18 -306q-33 -10 -52.5 -10t-53.5 2zM331 467q9 2 38.5 2t64.5 -16q-14 -24 -78 -96t-88 -101q115 -165 188 -240q-50 -25 -121 -25q-24 65 -55 113t-98 123l3 10q40 48 89.5 120t56.5 110z
" />
    <glyph glyph-name="l" unicode="l" horiz-adv-x="253" 
d="M78 -2q15 130 15 308.5t-3 236.5t-15 129q26 10 52 10t54 -2q-15 -123 -15 -368t18 -306q-33 -10 -61 -10t-45 2z" />
    <glyph glyph-name="m" unicode="m" horiz-adv-x="763" 
d="M672 335l-1 -82q0 -129 20 -244q-33 -13 -64.5 -13t-43.5 2q12 133 12 234.5t-13 141.5t-57 40t-102 -66l-1 -95q0 -129 20 -244q-33 -13 -64.5 -13t-43.5 2q12 133 12 234.5t-13 141.5t-57 40t-101 -64q-2 -31 -2 -94q0 -164 18 -250q-36 -10 -65 -10t-41 2
q15 136 15 238t-20 222q40 10 63 10t36 -4v-51q28 29 64.5 47t70.5 18q83 0 103 -77q30 35 70.5 56t75.5 21q57 0 83 -35.5t26 -107.5z" />
    <glyph glyph-name="n" unicode="n" horiz-adv-x="533" 
d="M443 334l-1 -81q0 -129 20 -244q-33 -13 -64.5 -13t-43.5 2q12 133 12 234.5t-14.5 141.5t-63.5 40t-113 -64q-2 -31 -2 -94q0 -164 18 -250q-36 -10 -65 -10t-41 2q15 136 15 238t-20 222q40 10 63 10t36 -4v-51q69 65 138 65t97.5 -35.5t28.5 -108.5z" />
    <glyph glyph-name="o" unicode="o" horiz-adv-x="466" 
d="M233 478q188 0 188 -241q0 -111 -35 -176q-40 -76 -153 -76t-153 76q-35 65 -35 176q0 241 188 241zM233 57q106 0 106 182.5t-106 182.5t-106 -182.5t106 -182.5z" />
    <glyph glyph-name="p" unicode="p" horiz-adv-x="496" 
d="M252 57q109 0 109 194q0 118 -39 149q-18 14 -47 14t-61 -19t-54 -46q-2 -83 -2 -269q58 -23 94 -23zM85 177q0 166 -18 279q31 10 60 10t38 -1l-2 -52q69 65 142 65q141 0 141 -240q0 -92 -36 -167q-20 -40 -60 -63t-89 -23t-102 24q4 -147 17 -209q-22 -10 -55 -10
t-51 2q15 91 15 385z" />
    <glyph glyph-name="q" unicode="q" horiz-adv-x="498" 
d="M424 452q-15 -129 -15 -299t3 -227t15 -126q-26 -10 -59 -10t-47 2q15 123 15 261q-71 -68 -141 -68t-107.5 57t-37.5 163q0 141 48.5 207t152.5 66q65 0 173 -26zM135 200q0 -143 85 -143q58 0 116 65v277q-44 23 -96 23t-78.5 -52.5t-26.5 -169.5z" />
    <glyph glyph-name="r" unicode="r" horiz-adv-x="347" 
d="M213 455.5q31 17.5 61 17.5t49 -33t19 -80q0 -17 -2 -29q-18 -9 -36.5 -9t-44.5 4q2 16 2 21q0 55 -40 55q-11 0 -30 -14t-36 -35q-2 -32 -2 -97q0 -164 18 -250q-36 -10 -61 -10t-45 2q15 136 15 238t-20 222q40 10 63 10t36 -4v-52q23 26 54 43.5z" />
    <glyph glyph-name="s" unicode="s" horiz-adv-x="403" 
d="M361 126q0 -71 -46 -106t-115 -35q-96 0 -168 55q4 22 15.5 43.5t20.5 32.5l10 10q52 -74 124 -74q35 0 57.5 15t22.5 41.5t-24.5 47.5t-59.5 35.5t-70 31t-59.5 47.5t-24.5 74q0 62 40 98t120.5 36t116 -35t35.5 -110q-22 -8 -41 -8t-47 6q2 14 2 22q0 31 -18 51.5
t-51.5 20.5t-55.5 -15.5t-22 -47t24.5 -54.5t59.5 -37.5t70 -30t59.5 -44t24.5 -70.5z" />
    <glyph glyph-name="t" unicode="t" horiz-adv-x="307" 
d="M75 162l2 223q0 15 -1 23q-42 0 -60 -1q-6 16 -6 31.5t2 23.5h61l-5 74q25 8 52.5 8t45.5 -4l-9 -77q55 1 111 6q6 -13 6 -28.5t-4 -37.5q-37 2 -117 4q-2 -20 -2 -59v-203q0 -26 2.5 -42.5t13 -30t30.5 -13.5q44 0 84 31q21 -30 21 -81q-55 -24 -95.5 -24t-64.5 10.5
t-37 25t-20 40.5q-10 37 -10 101z" />
    <glyph glyph-name="u" unicode="u" horiz-adv-x="502" 
d="M82 129l1 81q0 153 -18 248q23 9 51 9t55 -3q-15 -137 -15 -233t13.5 -135t60 -39t107.5 61q2 30 2 89q0 165 -18 251q38 10 63 10t43 -4q-15 -136 -15 -244.5t18 -216.5q-30 -9 -52 -9t-42 2l-2 49q-74 -60 -136.5 -60t-89 35.5t-26.5 108.5z" />
    <glyph glyph-name="v" unicode="v" horiz-adv-x="453" 
d="M259 0q-26 -7 -46.5 -7t-27.5 1q-26 92 -77.5 227.5t-98.5 230.5q40 17 72.5 17t43.5 -1q10 -143 99 -357h4q33 63 64.5 173t35.5 183q18 2 27 2q47 0 78 -17q-36 -80 -95.5 -229.5t-78.5 -222.5z" />
    <glyph glyph-name="w" unicode="w" horiz-adv-x="646" 
d="M517 467l36 1q35 0 69 -16q-31 -76 -87 -227t-75 -225q-26 -7 -46.5 -7t-27.5 1q-11 78 -66 287h-4q-57 -172 -82 -281q-26 -7 -46.5 -7t-27.5 1q-19 91 -62.5 226.5t-85.5 231.5q40 17 72.5 17t43.5 -1q7 -124 75 -357h4q22 50 45 142.5t29 156.5q30 7 51.5 7t39.5 -3
q20 -164 57 -303h4q29 62 55 172t29 184z" />
    <glyph glyph-name="x" unicode="x" horiz-adv-x="411" 
d="M318 -10q-17 0 -26 1q-39 93 -92 184q-50 -86 -64.5 -115t-18.5 -68q-13 -2 -29 -2q-39 0 -73 21q41 66 154 217q-17 26 -65 102t-77 118q29 21 82 21q17 0 26 -1q27 -61 81 -171q21 35 41.5 78.5t24.5 91.5q9 2 38.5 2t64.5 -16q-42 -72 -137 -215q8 -12 63 -96.5
t89 -130.5q-30 -21 -82 -21z" />
    <glyph glyph-name="y" unicode="y" horiz-adv-x="441" 
d="M181 -160.5q-40 -49.5 -95 -49.5t-103 32q4 58 33 83q30 -41 73 -41q23 0 52 39t47 91q-26 92 -77.5 227.5t-98.5 230.5q40 17 72.5 17t43.5 -1q10 -143 99 -357h4q33 63 64.5 173t35.5 183q18 2 27 2q47 0 78 -17q-25 -56 -89 -216.5t-95 -253.5t-71 -142.5z" />
    <glyph glyph-name="z" unicode="z" horiz-adv-x="425" 
d="M224 397q-89 0 -160 -19q-9 30 -9 48t6 45q52 -7 161 -7t163 6q5 -10 5 -38q-41 -77 -117 -191.5t-106 -166.5h44q108 2 166 19q10 -31 10 -54t-5 -46q-86 9 -170 9t-165 -6q-6 15 -7 36q43 67 129.5 189.5t122.5 175.5h-68z" />
    <glyph glyph-name="braceleft" unicode="{" horiz-adv-x="344" 
d="M178 588l12 -149q0 -39 -17 -70.5t-47 -35.5v-6q30 -4 47 -35.5t17 -70.5l-12 -149q0 -38 11 -52t44 -14t83 11q8 -26 8 -48t-4 -40q-46 12 -111.5 12t-88 29.5t-22.5 82.5l11 152q0 42 -15 67t-57 31q-7 10 -7 27t7 27q42 6 57 31t15 67l-11 152q0 53 22.5 82.5t88 29.5
t111.5 12q4 -18 4 -40t-8 -48q-50 11 -83 11t-44 -14t-11 -52z" />
    <glyph glyph-name="bar" unicode="|" horiz-adv-x="263" 
d="M93 -85q10 141 10 413t-13 389q26 12 43 12t37 -3q-10 -137 -10 -438.5t13 -363.5q-29 -12 -47 -12t-33 3z" />
    <glyph glyph-name="braceright" unicode="}" horiz-adv-x="344" 
d="M166 72l-12 149q0 39 17 70.5t47 35.5v6q-30 4 -47 35.5t-17 70.5l12 149q0 38 -11 52t-44 14t-83 -11q-8 26 -8 48t4 40q46 -12 111.5 -12t88 -29.5t22.5 -82.5l-11 -152q0 -42 15 -67t57 -31q7 -10 7 -27t-7 -27q-42 -6 -57 -31t-15 -67l11 -152q0 -53 -22.5 -82.5
t-88 -29.5t-111.5 -12q-4 18 -4 40t8 48q50 -11 83 -11t44 14t11 52z" />
    <glyph glyph-name="asciitilde" unicode="~" 
d="M502 288q-25 33 -70 33t-131 -28.5t-133.5 -28.5t-83.5 27q0 39 14 76q25 -33 70.5 -33t132 28.5t134 28.5t83.5 -27q0 -34 -16 -76z" />
    <glyph glyph-name="exclamdown" unicode="&#xa1;" horiz-adv-x="270" 
d="M149 88q0 -184 26 -288q-30 -11 -58 -11t-52 6q20 189 20 423q0 33 -2 65q20 6 34.5 6t33.5 -6q-2 -106 -2 -195zM50 408q0 30 18 50t55 20q57 0 57 -58q0 -72 -73 -72q-57 0 -57 60z" />
    <glyph glyph-name="cent" unicode="&#xa2;" horiz-adv-x="470" 
d="M262 213v-77q75 3 131 62q29 -30 37 -79q-74 -55 -165 -55q2 -49 5 -59q-27 -13 -51.5 -13t-39.5 3l8 78q-147 38 -147 238q0 92 40 156.5t125 82.5q-3 48 -6 82q22 13 62 13q9 0 29 -3q-3 -17 -10 -85q60 -3 102 -35t42 -90q0 -7 -2 -23q-26 -8 -47.5 -8t-43.5 2
q1 7 1 28.5t-14 43t-44 25.5q-12 -125 -12 -287zM122 311q0 -123 71 -161q15 169 15 305v35q-44 -19 -65 -67.5t-21 -111.5z" />
    <glyph glyph-name="sterling" unicode="&#xa3;" horiz-adv-x="546" 
d="M136 215q0 30 -3 60h-70q-8 16 -8 30t3 26h69q-15 120 -15 160q0 86 51 130.5t137 44.5q183 0 183 -172q0 -12 -3 -25q-22 -9 -46 -9t-34 2q1 8 1 21q0 61 -22.5 90t-78.5 29t-78 -34t-22 -78t9 -159q107 2 182 8q7 -14 7 -34.5t-4 -35.5q-100 5 -181 5q2 -36 2 -81
t-13 -126h95q33 0 104 4.5t89 9.5q4 -18 4 -40t-8 -48q-74 9 -158.5 9t-164.5 -4.5t-98 -9.5q-4 18 -4 35l54 49q21 63 21 143z" />
    <glyph glyph-name="yen" unicode="&#xa5;" horiz-adv-x="494" 
d="M134 401l-117 233q40 17 72.5 17t43.5 -1q6 -75 47 -172q16 -36 42.5 -95t39.5 -90h4q35 67 70.5 176.5t39.5 179.5q18 2 27 2q47 0 78 -17q-3 -8 -21 -48q-53 -112 -83 -181q49 2 74 4q7 -14 7 -34.5t-4 -35.5q-32 2 -103 4q-19 -46 -35 -90q24 -1 69 -1t65 1
q8 -16 8 -30t-3 -26q-101 0 -157 -1q0 -126 15 -194q-33 -10 -61 -10t-45 2q10 81 13 201q-94 -2 -158 -6q-7 14 -7 34.5t4 35.5q74 -4 140 -5q-16 41 -39 91h-97q-8 16 -8 30t3 26h76z" />
    <glyph glyph-name="brokenbar" unicode="&#xa6;" horiz-adv-x="263" 
d="M173 -76q-31 -12 -48 -12t-32 3q10 141 10 336q27 7 39 7t18 -1q0 -271 13 -333zM90 717q25 12 45 12t35 -3q-10 -141 -10 -336q-27 -7 -39.5 -7t-17.5 1q0 271 -13 333z" />
    <glyph glyph-name="section" unicode="&#xa7;" horiz-adv-x="480" 
d="M48 246q0 80 53 123q-53 46 -53 119.5t47 120t145.5 46.5t145 -49t46.5 -128q0 -12 -3 -25q-25 -9 -51.5 -9t-38.5 2q1 8 1 21q0 58 -30.5 93.5t-76.5 35.5t-72.5 -24.5t-26.5 -66t23 -67t57.5 -39.5t75 -31.5t75 -36t57.5 -55t23 -86.5q0 -80 -58 -120q58 -48 58 -125
q0 -56 -29.5 -92.5t-71.5 -49.5t-97 -13q-131 0 -212 76q4 24 16.5 44t22.5 28l11 7q59 -81 162 -81q57 0 83.5 23.5t26.5 59.5t-32 60.5t-77.5 41.5t-90.5 37.5t-77 60.5t-32 99zM189 168q40 -23 114 -51q54 19 54 76q0 27 -19.5 48t-42.5 31.5t-66 28t-66 28.5
q-29 -26 -29 -78t55 -83z" />
    <glyph glyph-name="dieresis" unicode="&#xa8;" horiz-adv-x="473" 
d="M213 607q0 -55 -58 -55q-45 0 -45 46q0 56 58 56q45 0 45 -47zM363 607q0 -55 -58 -55q-45 0 -45 46q0 56 58 56q45 0 45 -47z" />
    <glyph glyph-name="copyright" unicode="&#xa9;" horiz-adv-x="616" 
d="M407 541l-3 -17q-11 -6 -27 -6t-28 2q2 8 2 24.5t-12.5 32.5t-33.5 16q-75 0 -75 -125.5t75 -125.5q40 0 73 38q22 -19 27 -51q-47 -35 -100 -35q-75 0 -101 45.5t-26 127.5q0 165 127 165q51 0 76.5 -25.5t25.5 -65.5zM331 674q-218 0 -218 -205q0 -119 41.5 -166
t130.5 -47q111 0 164.5 58t53.5 161.5t-41.5 151t-130.5 47.5zM503.5 658q52.5 -60 52.5 -183.5t-64 -193t-195 -69.5t-184 63t-53 186q0 55 11 97.5t39 80.5q58 79 218 79q123 0 175.5 -60z" />
    <glyph glyph-name="ordfeminine" unicode="&#xaa;" horiz-adv-x="327" 
d="M258 590l-3 -85q0 -44 12 -120q-18 -7 -36 -7t-30 3l-2 23q-34 -31 -72.5 -31t-57.5 23.5t-19 63.5q0 86 98 86q30 0 55 -12q2 22 2 37q0 63 -46 63q-40 0 -40 -44q0 -7 1 -14l-14 -1q-32 0 -47 6q-1 5 -1 14q0 39 31.5 58.5t74 19.5t68.5 -21t26 -62zM148 510
q-42 0 -42 -42.5t36 -42.5t56 24q3 39 3 44q-23 17 -53 17zM49 262q-6 12 -6 27.5t6 36.5q198 14 222 19q6 -12 6 -27.5t-6 -36.5q-198 -14 -222 -19z" />
    <glyph glyph-name="guillemotleft" unicode="&#xab;" horiz-adv-x="495" 
d="M228 426l-81 -146q7 -13 81 -146q-20 -20 -48 -26q-18 22 -41 50t-35 44q-30 36 -74 78q44 42 65 68t44 54t41 50q31 -9 48 -26zM425 426q-79 -142 -81 -146q33 -62 81 -146q-23 -21 -48 -26q-18 22 -41 50t-36 44q-29 36 -73 78q44 42 65 68t44 54t41 50q28 -8 48 -26z
" />
    <glyph glyph-name="logicalnot" unicode="&#xac;" 
d="M446 286q-92 9 -148 9t-123 -4.5t-85 -9.5q-3 14 -3 40t7 48q69 -9 167 -9q200 0 250 14q-4 -43 -4 -105.5t11 -101.5q-14 -3 -36.5 -3t-43.5 7q8 42 8 115z" />
    <glyph glyph-name="registered" unicode="&#xae;" horiz-adv-x="616" 
d="M285 474q13 -6 30 -6t30 19t13 44q0 62 -59 62q-22 0 -40 -7q-3 -37 -3 -142.5t10 -138.5q-19 -7 -34.5 -7t-31.5 2q8 69 8 166.5t-10 150.5q37 15 99.5 15t88.5 -26t26 -67.5t-18.5 -69t-51.5 -36.5q56 -85 86 -125q-24 -12 -67 -12q-31 65 -75 134q-2 0 -12 4
q0 29 11 40zM503.5 658q52.5 -60 52.5 -183.5t-64 -193t-195 -69.5t-184 63t-53 186q0 55 11 97.5t39 80.5q58 79 218 79q123 0 175.5 -60zM331 674q-218 0 -218 -205q0 -119 41.5 -166t130.5 -47q111 0 164.5 58t53.5 161.5t-41.5 151t-130.5 47.5z" />
    <glyph glyph-name="macron" unicode="&#xaf;" horiz-adv-x="467" 
d="M352 571q-47 4 -128 4t-113 -8q-1 7 -1 30t4 39q40 -4 123.5 -4t117.5 9q2 -14 2 -34t-5 -36z" />
    <glyph glyph-name="degree" unicode="&#xb0;" horiz-adv-x="342" 
d="M274.5 651.5q27.5 -31.5 27.5 -96.5t-34 -101.5t-103 -36.5t-97 33t-28 96.5t30.5 100t103.5 36.5t100.5 -31.5zM180 631q-85 0 -85 -79q0 -46 16 -64.5t55 -18.5t60 22.5t21 63t-16 58.5t-51 18z" />
    <glyph glyph-name="plusminus" unicode="&#xb1;" 
d="M259 574q22 7 48 7t40 -3q-5 -17 -9.5 -80.5t-4.5 -97.5q34 0 97.5 4.5t80.5 9.5q3 -14 3 -40t-7 -48q-76 7 -174 9q0 -108 9 -174q-22 -7 -48 -7t-40 3q11 44 14 178q-134 -3 -178 -14q-3 13 -3 39.5t7 48.5q66 -9 174 -9q-2 98 -9 174zM507 -5q-92 9 -178.5 9
t-153.5 -4.5t-85 -9.5q-3 13 -3 39.5t7 48.5q69 -9 167 -9q200 0 250 14q3 -13 3 -39.5t-7 -48.5z" />
    <glyph glyph-name="twosuperior" unicode="&#xb2;" horiz-adv-x="349" 
d="M171 698q52 0 88 -28t36 -81q0 -28 -17.5 -60t-35 -52t-57 -61t-52.5 -58h50q83 0 116 11q7 -19 7 -37t-7 -34q-49 7 -127 7t-131 -10q-4 20 -4 32q29 47 79.5 100.5t65.5 71.5q45 52 45 88q0 23 -13.5 41t-41 18t-45 -15t-17.5 -49q0 -10 1 -15q-12 -4 -30.5 -4t-32.5 9
q-3 13 -3 25q0 48 37 74.5t89 26.5z" />
    <glyph glyph-name="threesuperior" unicode="&#xb3;" horiz-adv-x="370" 
d="M178 698q52 0 88 -28t36 -84t-42 -82q56 -29 56 -87t-36 -90.5t-114 -32.5t-125 44q3 17 12.5 32t17.5 22l8 6q35 -51 90 -51q40 0 59.5 18t19.5 46q0 46 -40 62q-15 -1 -39.5 -1t-43.5 3q-2 12 -2 23.5t8 23.5q17 -6 45.5 -6t44 22t15.5 46.5t-14.5 43t-42 18.5t-45 -15
t-17.5 -49q0 -10 1 -15q-12 -4 -30.5 -4t-32.5 9q-3 13 -3 25q0 48 37 74.5t89 26.5z" />
    <glyph glyph-name="acute" unicode="&#xb4;" horiz-adv-x="424" 
d="M130 528q-15 16 -20 37q19 13 48 32t42 29q41 28 74 56q21 -18 30 -34.5t10 -44.5q-60 -24 -184 -75z" />
    <glyph glyph-name="mu" unicode="&#xb5;" horiz-adv-x="485" 
d="M269 5.5q-25 -10.5 -65 -10.5t-66 23q5 -117 25 -195q-30 -11 -55.5 -11t-49.5 6q20 189 20 367t-18 273q22 9 50.5 9t55.5 -3q-15 -137 -15 -233t13.5 -135t60 -39t107.5 61q2 30 2 89q0 165 -18 251q38 10 63 10t43 -4q-15 -136 -15 -244.5t18 -216.5q-30 -9 -52 -9
t-42 2l-2 49q-35 -29 -60 -39.5z" />
    <glyph glyph-name="paragraph" unicode="&#xb6;" horiz-adv-x="512" 
d="M408 571q-8 -70 -8 -265t14 -312q-17 -2 -45 -2t-61 10q13 43 17 278q-20 -5 -46 -5q-102 0 -153 55t-51 135q0 190 218 190q113 0 191 -38q0 -27 -7 -48.5t-14 -27.5q-25 18 -55 30zM315 597l-21 1q-132 0 -132 -129q0 -49 24 -88t79 -39q33 0 60 16q0 138 -10 239z" />
    <glyph glyph-name="periodcentered" unicode="&#xb7;" horiz-adv-x="270" 
d="M220 253q0 -30 -18 -50t-55 -20q-57 0 -57 58q0 72 73 72q57 0 57 -60z" />
    <glyph glyph-name="cedilla" unicode="&#xb8;" horiz-adv-x="502" 
d="M337 -124q0 -86 -111 -86q-45 0 -74 12q-1 3 -1 18.5t13 35.5q22 -20 63.5 -20t41.5 39q0 30 -45 30q-20 0 -48 -4l16 89l42 9l2 -53q101 -4 101 -70z" />
    <glyph glyph-name="onesuperior" unicode="&#xb9;" horiz-adv-x="285" 
d="M200 694q-9 -66 -9 -207t12 -180q-21 -9 -41 -9t-42 2q10 75 10 178t-3 138q-51 -34 -68 -51q-30 34 -36 63q47 19 132 70q37 0 45 -4z" />
    <glyph glyph-name="ordmasculine" unicode="&#xba;" horiz-adv-x="331" 
d="M50 526q0 147 115.5 147t115.5 -147q0 -71 -25 -112t-91 -41t-90.5 41t-24.5 112zM165 425q57 0 57 102.5t-57 102.5t-57 -102.5t57 -102.5zM54 262q-6 12 -6 27.5t6 36.5q198 14 222 19q6 -12 6 -27.5t-6 -36.5q-198 -14 -222 -19z" />
    <glyph glyph-name="guillemotright" unicode="&#xbb;" horiz-adv-x="495" 
d="M348 280l-81 146q17 17 48 26q18 -22 41 -50t36 -44q29 -36 73 -78q-44 -42 -65 -68t-44 -54t-41 -50q-27 6 -48 26q74 133 81 146zM70 426q20 18 48 26q18 -22 41 -50t35 -44q30 -36 74 -78q-44 -42 -65 -68t-44 -54t-41 -50q-25 5 -48 26q48 84 81 146q-2 4 -81 146z
" />
    <glyph glyph-name="onequarter" unicode="&#xbc;" horiz-adv-x="889" 
d="M305 -46q-34 0 -57 19q124 292 254 713q16 2 26 2q28 0 53 -18q-121 -279 -255 -714q-16 -2 -21 -2zM758 76l-28 3q3 -58 9 -75q-21 -9 -41 -9t-42 2q6 53 7 85h-44q-81 0 -129 -3q-5 13 -5 31l26 43q82 137 124 230q23 9 45 9t56 -3q-9 -68 -9 -147t1 -101q23 3 31 6
q6 -18 6 -33t-7 -38zM665 136q1 19 1 71.5t-3 119.5q-44 -73 -98 -192q84 0 100 1zM257 649q-9 -66 -9 -207t12 -180q-21 -9 -41 -9t-42 2q10 75 10 178t-3 138q-51 -34 -68 -51q-30 34 -36 63q47 19 132 70q37 0 45 -4z" />
    <glyph glyph-name="onehalf" unicode="&#xbd;" horiz-adv-x="889" 
d="M294 -46q-34 0 -57 19q124 292 254 713q16 2 26 2q28 0 53 -18q-121 -279 -255 -714q-16 -2 -21 -2zM643 395q52 0 88 -28t36 -81q0 -28 -17.5 -60t-35 -52t-57 -61t-52.5 -58h50q83 0 116 11q7 -19 7 -37t-7 -34q-49 7 -127 7t-131 -10q-4 20 -4 32q29 47 79.5 100.5
t65.5 71.5q45 52 45 88q0 23 -13.5 41t-41 18t-45 -15t-17.5 -49q0 -10 1 -15q-12 -4 -30.5 -4t-32.5 9q-3 14 -3 25q0 48 37 74.5t89 26.5zM257 649q-9 -66 -9 -207t12 -180q-21 -9 -41 -9t-42 2q10 75 10 178t-3 138q-51 -34 -68 -51q-30 34 -36 63q47 19 132 70
q37 0 45 -4z" />
    <glyph glyph-name="threequarters" unicode="&#xbe;" horiz-adv-x="889" 
d="M335 -46q-34 0 -57 19q124 292 254 713q16 2 26 2q28 0 53 -18q-121 -279 -255 -714q-16 -2 -21 -2zM758 76l-28 3q3 -58 9 -75q-21 -9 -41 -9t-42 2q6 53 7 85h-44q-81 0 -129 -3q-5 13 -5 31l26 43q82 137 124 230q23 9 45 9t56 -3q-9 -68 -9 -147t1 -101q23 3 31 6
q6 -18 6 -33t-7 -38zM665 136q1 19 1 71.5t-3 119.5q-44 -73 -98 -192q84 0 100 1zM210 653q52 0 88 -28t36 -84t-42 -82q56 -29 56 -87t-36 -90.5t-114 -32.5t-125 44q3 17 12.5 32t17.5 21l8 7q35 -51 90 -51q40 0 59.5 18t19.5 46q0 46 -40 62q-15 -1 -39.5 -1t-43.5 3
q-2 12 -2 23.5t8 23.5q17 -6 45.5 -6t44 22t15.5 46.5t-14.5 43t-42 18.5t-45 -15t-17.5 -49q0 -10 1 -15q-12 -4 -30.5 -4t-32.5 9q-3 13 -3 25q0 48 37 74.5t89 26.5z" />
    <glyph glyph-name="questiondown" unicode="&#xbf;" horiz-adv-x="427" 
d="M360 -176l-1 -11q-53 -23 -131 -23t-132.5 40.5t-54.5 102.5q0 36 18 66t43.5 50.5t51.5 39.5q61 46 61 91t-28 77q26 32 62 35q34 -68 34 -118t-58 -108q-8 -8 -33.5 -31.5t-35.5 -34.5q-32 -37 -32 -72.5t28.5 -57.5t81 -22t106.5 40q20 -33 20 -64zM162 408
q0 30 18 50t55 20q57 0 57 -58q0 -72 -73 -72q-57 0 -57 60z" />
    <glyph glyph-name="Agrave" unicode="&#xc0;" horiz-adv-x="562" 
d="M396 178q-49 3 -122.5 3t-124.5 -4q-30 -124 -44 -187q-18 -2 -35.5 -2t-55.5 10q163 434 190 641q29 10 76 10t76 -10q27 -207 190 -641q-36 -10 -63.5 -10t-42.5 2q-17 75 -44 188zM166 247q46 -1 97 -1t115 2q-45 175 -99 330h-6q-59 -148 -107 -331zM338 704
q-63 13 -180 55q0 33 6.5 48.5t26.5 37.5q38 -32 65.5 -47.5t34 -19.5t31.5 -18t32 -18q-3 -21 -16 -38z" />
    <glyph glyph-name="Aacute" unicode="&#xc1;" horiz-adv-x="562" 
d="M396 178q-49 3 -122.5 3t-124.5 -4q-30 -124 -44 -187q-18 -2 -35.5 -2t-55.5 10q163 434 190 641q29 10 76 10t76 -10q27 -207 190 -641q-36 -10 -63.5 -10t-42.5 2q-17 75 -44 188zM166 247q46 -1 97 -1t115 2q-45 175 -99 330h-6q-59 -148 -107 -331zM397 768
q0 -12 -1 -18q-123 -37 -182 -46q-13 17 -15 39q21 11 50.5 26t44.5 23q44 24 73 46q30 -33 30 -70z" />
    <glyph glyph-name="Acircumflex" unicode="&#xc2;" horiz-adv-x="562" 
d="M396 178q-49 3 -122.5 3t-124.5 -4q-30 -124 -44 -187q-18 -2 -35.5 -2t-55.5 10q163 434 190 641q29 10 76 10t76 -10q27 -207 190 -641q-36 -10 -63.5 -10t-42.5 2q-17 75 -44 188zM166 247q46 -1 97 -1t115 2q-45 175 -99 330h-6q-59 -148 -107 -331zM409 704
q-68 21 -127 52q-87 -40 -135 -52q-12 18 -15 39q21 14 39 23t32.5 18t21.5 14t19 13q14 10 38 34q44 -42 143 -103q-3 -21 -16 -38z" />
    <glyph glyph-name="Atilde" unicode="&#xc3;" horiz-adv-x="562" 
d="M396 178q-49 3 -122.5 3t-124.5 -4q-30 -124 -44 -187q-18 -2 -35.5 -2t-55.5 10q163 434 190 641q29 10 76 10t76 -10q27 -207 190 -641q-36 -10 -63.5 -10t-42.5 2q-17 75 -44 188zM166 247q46 -1 97 -1t115 2q-45 175 -99 330h-6q-59 -148 -107 -331zM379 724
q-30 -20 -55 -20t-56.5 16.5t-49.5 16.5q-36 0 -54 -32q-27 11 -32 32q15 26 45 46t56.5 20t58 -16.5t46.5 -16.5q36 0 54 32q27 -11 32 -32q-15 -26 -45 -46z" />
    <glyph glyph-name="Adieresis" unicode="&#xc4;" horiz-adv-x="562" 
d="M396 178q-49 3 -122.5 3t-124.5 -4q-30 -124 -44 -187q-18 -2 -35.5 -2t-55.5 10q163 434 190 641q29 10 76 10t76 -10q27 -207 190 -641q-36 -10 -63.5 -10t-42.5 2q-17 75 -44 188zM166 247q46 -1 97 -1t115 2q-45 175 -99 330h-6q-59 -148 -107 -331zM407 759
q0 -55 -58 -55q-45 0 -45 46q0 56 58 56q45 0 45 -47zM257 759q0 -55 -58 -55q-45 0 -45 46q0 56 58 56q45 0 45 -47z" />
    <glyph glyph-name="Aring" unicode="&#xc5;" horiz-adv-x="562" 
d="M396 178q-49 3 -122.5 3t-124.5 -4q-30 -124 -44 -187q-18 -2 -35.5 -2t-55.5 10q163 434 190 641q29 10 76 10t76 -10q27 -207 190 -641q-36 -10 -63.5 -10t-42.5 2q-17 75 -44 188zM166 247q46 -1 97 -1t115 2q-45 175 -99 330h-6q-59 -148 -107 -331zM367 783
q0 -79 -94 -79q-43 0 -61.5 19t-18.5 58q0 79 94 79q44 0 62 -18t18 -59zM285 823q-53 0 -53 -40q0 -23 10 -32.5t33 -9.5q53 0 53 43q0 21 -10 30t-33 9z" />
    <glyph glyph-name="AE" unicode="&#xc6;" horiz-adv-x="777" 
d="M476 76q35 -3 108.5 -3t126.5 9q8 -26 8 -50.5t-4 -42.5q-19 5 -80 9.5t-121 4.5t-126 -7q0 81 -8 183q-82 2 -124.5 2t-87.5 -4q-25 -67 -62 -183q-14 -2 -37 -2t-57 10q208 448 249 644q56 -7 195 -7h61q34 0 94.5 4.5t78.5 9.5q4 -18 4 -40t-8 -48q-53 9 -143.5 9
t-119.5 -3q1 -63 15 -206q20 -1 99 -1t128 11q5 -32 5 -52.5t-1 -33.5q-47 8 -116 8t-107 -2q15 -146 30 -219zM375 248l-6 62q-21 173 -39 268h-7q-66 -159 -130 -331q43 -1 100 -1t82 2z" />
    <glyph glyph-name="Ccedilla" unicode="&#xc7;" horiz-adv-x="536" 
d="M303 -15l-10 1l2 -40q101 -4 101 -70q0 -86 -111 -86q-45 0 -74 12q-1 3 -1 18.5t13 35.5q22 -20 63.5 -20t41.5 39q0 30 -45 30q-20 0 -48 -4l15 88q-136 19 -174 154q-21 72 -21 184q0 328 248 328q100 0 149 -49.5t49 -127.5q0 -13 -3 -25q-17 -9 -41.5 -9t-48.5 2
q1 8 1 21q0 59 -28 94t-78 35q-166 0 -166 -268.5t166 -268.5q39 0 81 19t71 52q31 -25 40 -79q-89 -66 -192 -66z" />
    <glyph glyph-name="Egrave" unicode="&#xc8;" horiz-adv-x="519" 
d="M357 704q-63 13 -180 55q0 33 6.5 48.5t26.5 37.5q38 -32 65.5 -47.5t34 -19.5t31.5 -18t32 -18q-3 -21 -16 -38zM195 76q35 -3 121 -3t139 9q8 -26 8 -50.5t-4 -42.5q-19 5 -80 9.5t-137 4.5t-143 -7q14 138 14 335t-19 315q67 -7 144 -7t137.5 4.5t78.5 9.5
q4 -18 4 -40t-8 -48q-53 9 -137 9t-119 -3q-6 -57 -6 -206q21 -1 101 -1t130 11q5 -32 5 -52.5t-1 -33.5q-47 8 -119 8t-116 -2q0 -131 7 -219z" />
    <glyph glyph-name="Eacute" unicode="&#xc9;" horiz-adv-x="519" 
d="M195 76q35 -3 121 -3t139 9q8 -26 8 -50.5t-4 -42.5q-19 5 -80 9.5t-137 4.5t-143 -7q14 138 14 335t-19 315q67 -7 144 -7t137.5 4.5t78.5 9.5q4 -18 4 -40t-8 -48q-53 9 -137 9t-119 -3q-6 -57 -6 -206q21 -1 101 -1t130 11q5 -32 5 -52.5t-1 -33.5q-47 8 -129.5 8
t-105.5 -2q0 -131 7 -219zM406 768q0 -12 -1 -18q-123 -37 -182 -46q-13 17 -15 39q21 11 50.5 26t44.5 23q44 24 73 46q30 -33 30 -70z" />
    <glyph glyph-name="Ecircumflex" unicode="&#xca;" horiz-adv-x="519" 
d="M195 76q35 -3 121 -3t139 9q8 -26 8 -50.5t-4 -42.5q-19 5 -80 9.5t-137 4.5t-143 -7q14 138 14 335t-19 315q67 -7 144 -7t137.5 4.5t78.5 9.5q4 -18 4 -40t-8 -48q-53 9 -137 9t-119 -3q-6 -57 -6 -206q21 -1 101 -1t130 11q5 -32 5 -52.5t-1 -33.5q-47 8 -119 8
t-116 -2q0 -131 7 -219zM412 704q-68 21 -127 52q-87 -40 -135 -52q-12 18 -15 39q21 14 39 23t32.5 18t21.5 14t18 13q15 10 39 34q44 -42 143 -103q-3 -21 -16 -38z" />
    <glyph glyph-name="Edieresis" unicode="&#xcb;" horiz-adv-x="519" 
d="M406 759q0 -55 -58 -55q-45 0 -45 46q0 56 58 56q45 0 45 -47zM256 759q0 -55 -58 -55q-45 0 -45 46q0 56 58 56q45 0 45 -47zM195 76q35 -3 121 -3t139 9q8 -26 8 -50.5t-4 -42.5q-19 5 -80 9.5t-137 4.5t-143 -7q14 138 14 335t-19 315q67 -7 144 -7t137.5 4.5
t78.5 9.5q4 -18 4 -40t-8 -48q-53 9 -137 9t-119 -3q-6 -57 -6 -206q21 -1 101 -1t130 11q5 -32 5 -52.5t-1 -33.5q-47 8 -119 8t-116 -2q0 -131 7 -219z" />
    <glyph glyph-name="Igrave" unicode="&#xcc;" horiz-adv-x="317" 
d="M106 -6q14 117 14 333t-17 312q26 10 52 10t54 -2q-14 -111 -14 -351t17 -294q-33 -10 -61 -10t-45 2zM237 704q-63 13 -180 55q0 33 6.5 48.5t26.5 37.5q38 -32 65.5 -47.5t34 -19.5t31.5 -18t32 -18q-3 -21 -16 -38z" />
    <glyph glyph-name="Iacute" unicode="&#xcd;" horiz-adv-x="317" 
d="M106 -6q14 117 14 333t-17 312q26 10 52 10t54 -2q-14 -111 -14 -351t17 -294q-33 -10 -61 -10t-45 2zM281 768q0 -12 -1 -18q-123 -37 -182 -46q-13 17 -15 39q21 11 50.5 26t44.5 23q44 24 73 46q30 -33 30 -70z" />
    <glyph glyph-name="Icircumflex" unicode="&#xce;" horiz-adv-x="317" 
d="M106 -6q14 117 14 333t-17 312q26 10 52 10t54 -2q-14 -111 -14 -351t17 -294q-33 -10 -61 -10t-45 2zM285 704q-68 21 -127 52q-87 -40 -135 -52q-12 18 -15 39q21 14 39 23t32.5 18t21.5 14t19 13q14 10 38 34q44 -42 143 -103q-3 -21 -16 -38z" />
    <glyph glyph-name="Idieresis" unicode="&#xcf;" horiz-adv-x="317" 
d="M106 -6q14 117 14 333t-17 312q26 10 52 10t54 -2q-14 -111 -14 -351t17 -294q-33 -10 -61 -10t-45 2zM131 759q0 -55 -58 -55q-45 0 -45 46q0 56 58 56q45 0 45 -47zM281 759q0 -55 -58 -55q-45 0 -45 46q0 56 58 56q45 0 45 -47z" />
    <glyph glyph-name="Eth" unicode="&#xd0;" horiz-adv-x="617" 
d="M298 655q74 0 127 -27.5t81 -75.5q55 -93 55 -227q0 -186 -75 -269q-28 -31 -76 -51t-112 -20q-121 0 -196 28q12 105 14 278q-34 -3 -68 -8q-3 13 -3 39.5t7 48.5q32 -4 64 -6q-2 170 -17 262q86 28 199 28zM298 56q177 0 177 269q0 77 -16 135t-57 97t-98.5 39
t-105.5 -19q-7 -83 -7 -214q75 0 150 13q3 -14 3 -40t-7 -48q-62 7 -129 7h-17q0 -125 8 -218q47 -21 99 -21z" />
    <glyph glyph-name="Ntilde" unicode="&#xd1;" horiz-adv-x="650" 
d="M97 -6q14 117 14 333t-17 312q26 10 44.5 10t46.5 -2q19 -72 109.5 -218.5t188.5 -283.5q3 84 3 162q0 236 -17 332q26 10 44.5 10t46.5 -2q-14 -111 -14 -351t17 -294q-30 -10 -43.5 -10t-47.5 2q-7 31 -59 112.5t-129.5 194.5t-111.5 169q-1 -43 -1 -132
q0 -282 17 -336q-30 -10 -43.5 -10t-47.5 2zM424 724q-30 -20 -55 -20t-56.5 16.5t-49.5 16.5q-36 0 -54 -32q-27 11 -32 32q15 26 45 46t56.5 20t58 -16.5t46.5 -16.5q36 0 54 32q27 -11 32 -32q-15 -26 -45 -46z" />
    <glyph glyph-name="Ograve" unicode="&#xd2;" horiz-adv-x="692" 
d="M103 327q0 328 245.5 328t245.5 -328q0 -60 -4.5 -105t-20 -92t-41.5 -77t-71.5 -49t-108 -19t-108 19t-71.5 49t-41.5 77t-20 92t-4.5 105zM264 81q34 -22 84.5 -22t85 22t51.5 63q30 71 30 182q0 270 -166.5 270t-166.5 -270q0 -193 82 -245zM430 704q-63 13 -180 55
q0 33 6.5 48.5t26.5 37.5q38 -32 65.5 -47.5t34 -19.5t31.5 -18t32 -18q-3 -21 -16 -38z" />
    <glyph glyph-name="Oacute" unicode="&#xd3;" 
d="M55 327q0 328 245.5 328t245.5 -328q0 -60 -4.5 -105t-20 -92t-41.5 -77t-71.5 -49t-108 -19t-108 19t-71.5 49t-41.5 77t-20 92t-4.5 105zM216 81q34 -22 84.5 -22t85 22t51.5 63q30 71 30 182q0 270 -166.5 270t-166.5 -270q0 -193 82 -245zM427 768q0 -12 -1 -18
q-123 -37 -182 -46q-13 17 -15 39q21 11 50.5 26t44.5 23q44 24 73 46q30 -33 30 -70z" />
    <glyph glyph-name="Ocircumflex" unicode="&#xd4;" 
d="M55 327q0 328 245.5 328t245.5 -328q0 -60 -4.5 -105t-20 -92t-41.5 -77t-71.5 -49t-108 -19t-108 19t-71.5 49t-41.5 77t-20 92t-4.5 105zM216 81q34 -22 84.5 -22t85 22t51.5 63q30 71 30 182q0 270 -166.5 270t-166.5 -270q0 -193 82 -245zM427 704q-68 21 -127 52
q-87 -40 -135 -52q-12 18 -15 39q21 14 39 23t32.5 18t21.5 14t19 13q14 10 38 34q44 -42 143 -103q-3 -21 -16 -38z" />
    <glyph glyph-name="Otilde" unicode="&#xd5;" 
d="M55 327q0 328 245.5 328t245.5 -328q0 -60 -4.5 -105t-20 -92t-41.5 -77t-71.5 -49t-108 -19t-108 19t-71.5 49t-41.5 77t-20 92t-4.5 105zM216 81q34 -22 84.5 -22t85 22t51.5 63q30 71 30 182q0 270 -166.5 270t-166.5 -270q0 -193 82 -245zM401 724q-30 -20 -55 -20
t-56.5 16.5t-49.5 16.5q-36 0 -54 -32q-27 11 -32 32q15 26 45 46t56.5 20t58 -16.5t46.5 -16.5q36 0 54 32q27 -11 32 -32q-15 -26 -45 -46z" />
    <glyph glyph-name="Odieresis" unicode="&#xd6;" 
d="M55 327q0 328 245.5 328t245.5 -328q0 -60 -4.5 -105t-20 -92t-41.5 -77t-71.5 -49t-108 -19t-108 19t-71.5 49t-41.5 77t-20 92t-4.5 105zM216 81q34 -22 84.5 -22t85 22t51.5 63q30 71 30 182q0 270 -166.5 270t-166.5 -270q0 -193 82 -245zM279 759q0 -55 -58 -55
q-45 0 -45 46q0 56 58 56q45 0 45 -47zM429 759q0 -55 -58 -55q-45 0 -45 46q0 56 58 56q45 0 45 -47z" />
    <glyph glyph-name="multiply" unicode="&#xd7;" 
d="M104 465q20 38 59 65q9 -15 59 -71.5t78 -85.5q25 25 76.5 83.5t61.5 73.5q39 -27 59 -65q-62 -51 -151 -138q101 -99 151 -137q-13 -24 -27.5 -38t-31.5 -27q-10 15 -61.5 73t-76.5 83q-29 -30 -78.5 -85.5t-58.5 -70.5q-39 28 -59 65q46 35 150 137q-77 77 -150 138z
" />
    <glyph glyph-name="Oslash" unicode="&#xd8;" 
d="M195 -84q-32 0 -54 21l27 78q-67 38 -90 116.5t-23 195.5q0 328 245 328q37 0 64 -7l20 74q16 2 25 2q25 0 51 -20l-30 -81q116 -71 116 -296q0 -60 -4.5 -105t-20 -92t-41.5 -77t-71.5 -49t-95 -19t-79.5 6l-19 -72q-11 -3 -20 -3zM134 326q0 -169 63 -230
q78 231 151 493q-26 7 -48 7q-166 0 -166 -270zM300 59q102 0 137 85q30 71 30 182q0 161 -62 227q-79 -231 -150 -489q22 -5 45 -5z" />
    <glyph glyph-name="Ugrave" unicode="&#xd9;" horiz-adv-x="644" 
d="M546 277q0 -60 -4 -100.5t-17.5 -79.5t-37.5 -62q-52 -50 -162 -50q-141 0 -185 79q-22 42 -29.5 90t-7.5 123q0 266 -17 362q26 10 52 10t54 -2q-14 -111 -14 -371q0 -112 31 -164.5t123 -52.5t121.5 52.5t29.5 164.5q0 267 -17 363q26 10 46 10t48 -2
q-14 -111 -14 -370zM375 704q-63 13 -180 55q0 33 6.5 48.5t26.5 37.5q38 -32 65.5 -47.5t34 -19.5t31.5 -18t32 -18q-3 -21 -16 -38z" />
    <glyph glyph-name="Uacute" unicode="&#xda;" horiz-adv-x="644" 
d="M546 277q0 -60 -4 -100.5t-17.5 -79.5t-37.5 -62q-52 -50 -162 -50q-141 0 -185 79q-22 42 -29.5 90t-7.5 123q0 266 -17 362q26 10 52 10t54 -2q-14 -111 -14 -371q0 -112 31 -164.5t123 -52.5t121.5 52.5t29.5 164.5q0 267 -17 363q26 10 46 10t48 -2
q-14 -111 -14 -370zM443 768q0 -12 -1 -18q-123 -37 -182 -46q-13 17 -15 39q21 11 50.5 26t44.5 23q44 24 73 46q30 -33 30 -70z" />
    <glyph glyph-name="Ucircumflex" unicode="&#xdb;" horiz-adv-x="644" 
d="M546 277q0 -60 -4 -100.5t-17.5 -79.5t-37.5 -62q-52 -50 -162 -50q-141 0 -185 79q-22 42 -29.5 90t-7.5 123q0 266 -17 362q26 10 52 10t54 -2q-14 -111 -14 -371q0 -112 31 -164.5t123 -52.5t121.5 52.5t29.5 164.5q0 267 -17 363q26 10 46 10t48 -2
q-14 -111 -14 -370zM455 704q-68 21 -127 52q-87 -40 -135 -52q-12 18 -15 39q21 14 39 23t32.5 18t21.5 14t19 13q14 10 38 34q44 -42 143 -103q-3 -21 -16 -38z" />
    <glyph glyph-name="Udieresis" unicode="&#xdc;" horiz-adv-x="644" 
d="M546 277q0 -60 -4 -100.5t-17.5 -79.5t-37.5 -62q-52 -50 -162 -50q-141 0 -185 79q-22 42 -29.5 90t-7.5 123q0 266 -17 362q26 10 52 10t54 -2q-14 -111 -14 -371q0 -112 31 -164.5t123 -52.5t121.5 52.5t29.5 164.5q0 267 -17 363q26 10 46 10t48 -2
q-14 -111 -14 -370zM303 759q0 -55 -58 -55q-45 0 -45 46q0 56 58 56q45 0 45 -47zM453 759q0 -55 -58 -55q-45 0 -45 46q0 56 58 56q45 0 45 -47z" />
    <glyph glyph-name="Yacute" unicode="&#xdd;" horiz-adv-x="494" 
d="M14 634q40 17 72.5 17t43.5 -1q6 -75 48 -172q15 -36 41.5 -95t39.5 -90h4q35 67 70.5 176.5t39.5 179.5q18 2 27 2q47 0 78 -17q-1 -3 -33.5 -73.5t-57.5 -126.5q-75 -168 -93 -240q5 -163 16 -192q-33 -10 -61 -10t-45 2q10 82 13 203q-23 73 -67.5 165.5t-84 170
t-51.5 101.5zM394 768q0 -12 -1 -18q-123 -37 -182 -46q-13 17 -15 39q21 11 50.5 26t44.5 23q44 24 73 46q30 -33 30 -70z" />
    <glyph glyph-name="Thorn" unicode="&#xde;" horiz-adv-x="518" 
d="M93 -6q14 117 14 333t-17 312q26 10 52 10t54 -2q-7 -45 -10 -98q44 6 98 6q118 0 168 -53.5t50 -150t-50.5 -156.5t-153.5 -60q-40 0 -79 15q0 27 7 50t14 31q29 -29 69.5 -29t64.5 25q41 41 41 122q0 149 -132 149q-43 0 -100 -24q-1 -45 -1 -136q0 -282 17 -336
q-33 -10 -61 -10t-45 2z" />
    <glyph glyph-name="germandbls" unicode="&#xdf;" horiz-adv-x="538" 
d="M89 408l-57 -1q-6 12 -6 29.5t2 25.5h61q3 60 19 105.5t56 76.5t109 31t119 -41.5t50 -110.5t-31.5 -109t-78.5 -55q180 -38 180 -186q0 -138 -108 -176q-35 -12 -80 -12q-75 0 -129 49q6 34 28 64l7 10q35 -59 96 -59q99 0 99 124q0 94 -71 126q-29 13 -60.5 17t-34.5 5
q-6 12 -6 29.5t2 25.5q104 21 104 131q0 47 -23.5 77.5t-62.5 30.5t-60.5 -13.5t-30.5 -39.5q-17 -44 -17 -110v-215q0 -139 18 -231q-34 -10 -61 -10t-45 4q15 155 15 208z" />
    <glyph glyph-name="agrave" unicode="&#xe0;" horiz-adv-x="473" 
d="M209 219q-36 0 -58.5 -19.5t-22.5 -60.5q0 -82 71 -82q28 0 57 14t45 33q5 63 5 80q-41 35 -97 35zM388 345l-4 -144q0 -83 17 -198q-30 -9 -52 -9t-42 2l-3 48q-76 -59 -134.5 -59t-89 37.5t-30.5 107t45.5 105.5t107.5 36t107 -24q1 20 1 44t-1.5 42t-9.5 42
q-14 47 -73 47q-74 0 -74 -81l1 -17q-22 -2 -41 -2t-45 8q-2 16 -2 23q0 63 46 94t119.5 31t115 -33.5t41.5 -99.5zM277 528q-124 51 -184 75q1 28 10 44.5t30 34.5q46 -39 95.5 -71.5t68.5 -45.5q-5 -21 -20 -37z" />
    <glyph glyph-name="aacute" unicode="&#xe1;" horiz-adv-x="473" 
d="M209 219q-36 0 -58.5 -19.5t-22.5 -60.5q0 -82 71 -82q28 0 57 14t45 33q5 63 5 80q-41 35 -97 35zM388 345l-4 -144q0 -83 17 -198q-30 -9 -52 -9t-42 2l-3 48q-76 -59 -134.5 -59t-89 37.5t-30.5 107t45.5 105.5t107.5 36t107 -24q1 20 1 44t-1.5 42t-9.5 42
q-14 47 -73 47q-74 0 -74 -81l1 -17q-22 -2 -41 -2t-45 8q-2 16 -2 23q0 63 46 94t119.5 31t115 -33.5t41.5 -99.5zM172 528q-15 16 -20 37q19 13 48 32t42 29q41 28 74 56q21 -18 30 -34.5t10 -44.5q-60 -24 -184 -75z" />
    <glyph glyph-name="acircumflex" unicode="&#xe2;" horiz-adv-x="473" 
d="M209 219q-36 0 -58.5 -19.5t-22.5 -60.5q0 -82 71 -82q28 0 57 14t45 33q5 63 5 80q-41 35 -97 35zM388 345l-4 -144q0 -83 17 -198q-30 -9 -52 -9t-42 2l-3 48q-76 -59 -134.5 -59t-89 37.5t-30.5 107t45.5 105.5t107.5 36t107 -24q1 20 1 44t-1.5 42t-9.5 42
q-14 47 -73 47q-74 0 -74 -81l1 -17q-22 -2 -41 -2t-45 8q-2 16 -2 23q0 63 46 94t119.5 31t115 -33.5t41.5 -99.5zM339 528l-114 63q-33 -18 -114 -63q-16 18 -20 37q18 15 47 39q61 51 87 78q26 -27 71 -64.5l63 -52.5q-5 -21 -20 -37z" />
    <glyph glyph-name="atilde" unicode="&#xe3;" horiz-adv-x="473" 
d="M209 219q-36 0 -58.5 -19.5t-22.5 -60.5q0 -82 71 -82q28 0 57 14t45 33q5 63 5 80q-41 35 -97 35zM388 345l-4 -144q0 -83 17 -198q-30 -9 -52 -9t-42 2l-3 48q-76 -59 -134.5 -59t-89 37.5t-30.5 107t45.5 105.5t107.5 36t107 -24q1 20 1 44t-1.5 42t-9.5 42
q-14 47 -73 47q-74 0 -74 -81l1 -17q-22 -2 -41 -2t-45 8q-2 16 -2 23q0 63 46 94t119.5 31t115 -33.5t41.5 -99.5zM125 620.5q29 22.5 55 22.5t57.5 -16.5t48.5 -16.5q25 0 50 40q27 -12 34 -33q-14 -27 -43 -50t-55.5 -23t-58 16.5t-53 16.5t-46.5 -40q-25 12 -32 33
q14 28 43 50.5z" />
    <glyph glyph-name="adieresis" unicode="&#xe4;" horiz-adv-x="473" 
d="M209 219q-36 0 -58.5 -19.5t-22.5 -60.5q0 -82 71 -82q28 0 57 14t45 33q5 63 5 80q-41 35 -97 35zM388 345l-4 -144q0 -83 17 -198q-30 -9 -52 -9t-42 2l-3 48q-76 -59 -134.5 -59t-89 37.5t-30.5 107t45.5 105.5t107.5 36t107 -24q1 20 1 44t-1.5 42t-9.5 42
q-14 47 -73 47q-74 0 -74 -81l1 -17q-22 -2 -41 -2t-45 8q-2 16 -2 23q0 63 46 94t119.5 31t115 -33.5t41.5 -99.5zM202 599q0 -55 -58 -55q-45 0 -45 46q0 56 58 56q45 0 45 -47zM352 599q0 -55 -58 -55q-45 0 -45 46q0 56 58 56q45 0 45 -47z" />
    <glyph glyph-name="aring" unicode="&#xe5;" horiz-adv-x="473" 
d="M209 219q-36 0 -58.5 -19.5t-22.5 -60.5q0 -82 71 -82q28 0 57 14t45 33q5 63 5 80q-41 35 -97 35zM388 345l-4 -144q0 -83 17 -198q-30 -9 -52 -9t-42 2l-3 48q-76 -59 -134.5 -59t-89 37.5t-30.5 107t45.5 105.5t107.5 36t107 -24q1 20 1 44t-1.5 42t-9.5 42
q-14 47 -73 47q-74 0 -74 -81l1 -17q-22 -2 -41 -2t-45 8q-2 16 -2 23q0 63 46 94t119.5 31t115 -33.5t41.5 -99.5zM297 673.5q17 -19.5 17 -60t-21.5 -63.5t-67.5 -23q-75 0 -75 83t89 83q41 0 58 -19.5zM237 656q-48 0 -48 -45q0 -26 9 -36.5t29 -10.5q48 0 48 48
q0 44 -38 44z" />
    <glyph glyph-name="ae" unicode="&#xe6;" horiz-adv-x="716" 
d="M153 341l1 -17q-22 -2 -41 -2t-45 8q-2 16 -2 23q0 63 46 94t129.5 31t122.5 -68q54 68 133 68t123 -43.5t44 -103t-11 -85.5q-75 -24 -149 -24t-112 5q0 -120 52 -154q24 -16 61 -16q60 0 124 62q29 -30 37 -79q-80 -56 -169 -56q-110 0 -153 82q-45 -44 -83.5 -62.5
t-94 -18.5t-86 37.5t-30.5 107t45.5 105.5t107.5 36t107 -24q1 20 1 44t-1.5 42t-9.5 42q-14 47 -73 47q-74 0 -74 -81zM199 57q68 0 123 69q-4 17 -8 51q-47 42 -105 42q-36 0 -58.5 -19.5t-22.5 -60.5q0 -82 71 -82zM497 422q-94 0 -104 -137q42 -5 97 -5t86 10q4 36 4 37
q0 39 -20 67t-63 28z" />
    <glyph glyph-name="ccedilla" unicode="&#xe7;" horiz-adv-x="430" 
d="M229 478q64 0 109.5 -32t45.5 -93q0 -7 -2 -23q-26 -8 -45 -8t-41 2q1 7 1 19q0 33 -19.5 56t-55.5 23q-95 0 -95 -182.5t104 -182.5q50 0 122 62q29 -30 37 -79q-81 -53 -161 -55l2 -39q101 -4 101 -70q0 -86 -111 -86q-45 0 -74 12q-1 3 -1 18.5t13 35.5
q22 -20 63.5 -20t41.5 39q0 30 -45 30q-20 0 -48 -4l15 87q-79 13 -110 79.5t-31 173t43 172t141 65.5z" />
    <glyph glyph-name="egrave" unicode="&#xe8;" horiz-adv-x="451" 
d="M388 246q-75 -24 -149.5 -24t-111.5 5q0 -90 29 -131q27 -39 84 -39t124 62q29 -30 37 -79q-81 -55 -169 -55q-105 0 -146 68.5t-41 181.5t45.5 178t148.5 65q72 0 115.5 -43.5t44 -103t-10.5 -85.5zM232 422q-92 0 -104 -137q43 -5 97.5 -5t85.5 10q4 36 4 37
q0 39 -20 67t-63 28zM272 528q-124 51 -184 75q1 28 10 44.5t30 34.5q46 -39 95.5 -71.5t68.5 -45.5q-5 -21 -20 -37z" />
    <glyph glyph-name="eacute" unicode="&#xe9;" horiz-adv-x="451" 
d="M388 246q-75 -24 -149.5 -24t-111.5 5q0 -90 29 -131q27 -39 84 -39t124 62q29 -30 37 -79q-81 -55 -169 -55q-105 0 -146 68.5t-41 181.5t45.5 178t148.5 65q72 0 115.5 -43.5t44 -103t-10.5 -85.5zM232 422q-92 0 -104 -137q43 -5 97.5 -5t85.5 10q4 36 4 37
q0 39 -20 67t-63 28zM169 528q-15 16 -20 37q19 13 48 32t43 29q40 28 73 56q21 -18 30 -34.5t10 -44.5q-60 -24 -184 -75z" />
    <glyph glyph-name="ecircumflex" unicode="&#xea;" horiz-adv-x="451" 
d="M388 246q-75 -24 -149.5 -24t-111.5 5q0 -90 29 -131q27 -39 84 -39t124 62q29 -30 37 -79q-81 -55 -169 -55q-105 0 -146 68.5t-41 181.5t45.5 178t148.5 65q72 0 115.5 -43.5t44 -103t-10.5 -85.5zM232 422q-92 0 -104 -137q43 -5 97.5 -5t85.5 10q4 36 4 37
q0 39 -20 67t-63 28zM350 528l-114 63q-33 -18 -114 -63q-16 18 -20 37q18 15 48 39q60 51 86 78q26 -27 71 -64.5l63 -52.5q-5 -21 -20 -37z" />
    <glyph glyph-name="edieresis" unicode="&#xeb;" horiz-adv-x="451" 
d="M388 246q-75 -24 -149.5 -24t-111.5 5q0 -90 29 -131q27 -39 84 -39t124 62q29 -30 37 -79q-81 -55 -169 -55q-105 0 -146 68.5t-41 181.5t45.5 178t148.5 65q72 0 115.5 -43.5t44 -103t-10.5 -85.5zM232 422q-92 0 -104 -137q43 -5 97.5 -5t85.5 10q4 36 4 37
q0 39 -20 67t-63 28zM367 607q0 -55 -58 -55q-45 0 -45 46q0 56 58 56q45 0 45 -47zM217 607q0 -55 -58 -55q-45 0 -45 46q0 56 58 56q45 0 45 -47z" />
    <glyph glyph-name="igrave" unicode="&#xec;" horiz-adv-x="263" 
d="M173 256q0 -164 18 -250q-36 -10 -65 -10t-41 2q15 136 15 249.5t-18 210.5q34 10 61 10t45 -4q-15 -155 -15 -208zM198 528q-124 51 -184 75q1 28 10 44.5t30 34.5q46 -39 95.5 -71.5t68.5 -45.5q-5 -21 -20 -37z" />
    <glyph glyph-name="iacute" unicode="&#xed;" horiz-adv-x="263" 
d="M84 528q-15 16 -20 37q19 13 48 32t42 29q41 28 74 56q21 -18 30 -34.5t10 -44.5q-60 -24 -184 -75zM173 256q0 -164 18 -250q-36 -10 -65 -10t-41 2q15 136 15 249.5t-18 210.5q34 10 61 10t45 -4q-15 -155 -15 -208z" />
    <glyph glyph-name="icircumflex" unicode="&#xee;" horiz-adv-x="263" 
d="M173 256q0 -164 18 -250q-36 -10 -65 -10t-41 2q15 136 15 249.5t-18 210.5q34 10 61 10t45 -4q-15 -155 -15 -208zM250 528l-114 63q-33 -18 -114 -63q-16 18 -20 37q18 15 48 39q60 51 86 78q26 -27 71 -64.5l63 -52.5q-5 -21 -20 -37z" />
    <glyph glyph-name="idieresis" unicode="&#xef;" horiz-adv-x="263" 
d="M173 256q0 -164 18 -250q-36 -10 -65 -10t-41 2q15 136 15 249.5t-18 210.5q34 10 61 10t45 -4q-15 -155 -15 -208zM112 607q0 -55 -58 -55q-45 0 -45 46q0 56 58 56q45 0 45 -47zM262 607q0 -55 -58 -55q-45 0 -45 46q0 56 58 56q45 0 45 -47z" />
    <glyph glyph-name="eth" unicode="&#xf0;" horiz-adv-x="486" 
d="M431 246q0 -147 -49 -206q-20 -24 -55.5 -39.5t-88 -15.5t-91 19.5t-57.5 56.5q-35 65 -35 175.5t42.5 176t136.5 65.5q54 0 100 -43q-32 87 -85 134q-61 -35 -83 -51q-21 13 -21 43q29 15 65 36q-35 21 -87 40q0 34 13 50q73 -22 127 -60q64 36 88 54q20 -12 22 -45
q-34 -17 -74 -39q132 -121 132 -351zM243 57q106 0 106 182.5t-106 182.5t-106 -182.5t106 -182.5z" />
    <glyph glyph-name="ntilde" unicode="&#xf1;" horiz-adv-x="533" 
d="M443 334l-1 -81q0 -129 20 -244q-33 -13 -64.5 -13t-43.5 2q12 133 12 234.5t-14.5 141.5t-63.5 40t-113 -64q-2 -31 -2 -94q0 -164 18 -250q-36 -10 -65 -10t-41 2q15 136 15 238t-20 222q40 10 63 10t36 -4v-51q69 65 138 65t97.5 -35.5t28.5 -108.5zM165 620.5
q29 22.5 55 22.5t57.5 -16.5t48.5 -16.5q25 0 50 40q27 -12 34 -33q-14 -27 -43 -50t-55.5 -23t-58 16.5t-53 16.5t-46.5 -40q-25 12 -32 33q14 28 43 50.5z" />
    <glyph glyph-name="ograve" unicode="&#xf2;" horiz-adv-x="466" 
d="M233 478q188 0 188 -241q0 -111 -35 -176q-40 -76 -153 -76t-153 76q-35 65 -35 176q0 241 188 241zM233 57q106 0 106 182.5t-106 182.5t-106 -182.5t106 -182.5zM285 528q-124 51 -184 75q1 28 10 44.5t30 34.5q46 -39 95.5 -71.5t68.5 -45.5q-5 -21 -20 -37z" />
    <glyph glyph-name="oacute" unicode="&#xf3;" horiz-adv-x="466" 
d="M233 478q188 0 188 -241q0 -111 -35 -176q-40 -76 -153 -76t-153 76q-35 65 -35 176q0 241 188 241zM233 57q106 0 106 182.5t-106 182.5t-106 -182.5t106 -182.5zM181 528q-15 16 -20 37q19 13 48 32t43 29q40 28 73 56q21 -18 30 -34.5t10 -44.5q-60 -24 -184 -75z" />
    <glyph glyph-name="ocircumflex" unicode="&#xf4;" horiz-adv-x="466" 
d="M233 478q188 0 188 -241q0 -111 -35 -176q-40 -76 -153 -76t-153 76q-35 65 -35 176q0 241 188 241zM233 57q106 0 106 182.5t-106 182.5t-106 -182.5t106 -182.5zM347 528l-114 63q-33 -18 -114 -63q-16 18 -20 37q18 15 47 39q61 51 87 78q26 -27 71 -64.5l63 -52.5
q-5 -21 -20 -37z" />
    <glyph glyph-name="otilde" unicode="&#xf5;" horiz-adv-x="466" 
d="M233 478q188 0 188 -241q0 -111 -35 -176q-40 -76 -153 -76t-153 76q-35 65 -35 176q0 241 188 241zM233 57q106 0 106 182.5t-106 182.5t-106 -182.5t106 -182.5zM132 620.5q29 22.5 55 22.5t57.5 -16.5t48.5 -16.5q25 0 50 40q27 -12 34 -33q-14 -27 -43 -50t-55.5 -23
t-58 16.5t-53 16.5t-46.5 -40q-25 12 -32 33q14 28 43 50.5z" />
    <glyph glyph-name="odieresis" unicode="&#xf6;" horiz-adv-x="466" 
d="M233 478q188 0 188 -241q0 -111 -35 -176q-40 -76 -153 -76t-153 76q-35 65 -35 176q0 241 188 241zM233 57q106 0 106 182.5t-106 182.5t-106 -182.5t106 -182.5zM209 607q0 -55 -58 -55q-45 0 -45 46q0 56 58 56q45 0 45 -47zM359 607q0 -55 -58 -55q-45 0 -45 46
q0 56 58 56q45 0 45 -47z" />
    <glyph glyph-name="divide" unicode="&#xf7;" 
d="M507 286q-92 9 -178.5 9t-153.5 -4.5t-85 -9.5q-3 14 -3 40t7 48q69 -9 167 -9q200 0 250 14q3 -14 3 -40t-7 -48zM365 500q0 -30 -18 -50t-55 -20q-57 0 -57 58q0 72 73 72q57 0 57 -60zM365 165q0 -30 -18 -50t-55 -20q-57 0 -57 58q0 72 73 72q57 0 57 -60z" />
    <glyph glyph-name="oslash" unicode="&#xf8;" horiz-adv-x="466" 
d="M379 527q-21 -45 -35 -80q77 -55 77 -210q0 -111 -35 -176q-40 -76 -153 -76q-31 0 -56 6l-22 -70q-14 -2 -19 -2q-29 0 -49 16l34 80q-76 53 -76 222q0 241 188 241q29 0 55 -6l22 69q12 2 30 2t39 -16zM127 237q0 -94 27 -139q58 151 115 317q-19 7 -36 7
q-106 0 -106 -185zM233 57q106 0 106 180q0 87 -25 136q-57 -144 -113 -312q12 -4 32 -4z" />
    <glyph glyph-name="ugrave" unicode="&#xf9;" horiz-adv-x="502" 
d="M82 129l1 81q0 153 -18 248q23 9 51 9t55 -3q-15 -137 -15 -233t13.5 -135t60 -39t107.5 61q2 30 2 89q0 165 -18 251q38 10 63 10t43 -4q-15 -136 -15 -244.5t18 -216.5q-30 -9 -52 -9t-42 2l-2 49q-74 -60 -136.5 -60t-89 35.5t-26.5 108.5zM299 528q-124 51 -184 75
q1 28 10 44.5t30 34.5q46 -39 95.5 -71.5t68.5 -45.5q-5 -21 -20 -37z" />
    <glyph glyph-name="uacute" unicode="&#xfa;" horiz-adv-x="502" 
d="M82 129l1 81q0 153 -18 248q23 9 51 9t55 -3q-15 -137 -15 -233t13.5 -135t60 -39t107.5 61q2 30 2 89q0 165 -18 251q38 10 63 10t43 -4q-15 -136 -15 -244.5t18 -216.5q-30 -9 -52 -9t-42 2l-2 49q-74 -60 -136.5 -60t-89 35.5t-26.5 108.5zM196 528q-15 16 -20 37
q19 13 48 32t42 29q41 28 74 56q21 -18 30 -34.5t10 -44.5q-60 -24 -184 -75z" />
    <glyph glyph-name="ucircumflex" unicode="&#xfb;" horiz-adv-x="502" 
d="M82 129l1 81q0 153 -18 248q23 9 51 9t55 -3q-15 -137 -15 -233t13.5 -135t60 -39t107.5 61q2 30 2 89q0 165 -18 251q38 10 63 10t43 -4q-15 -136 -15 -244.5t18 -216.5q-30 -9 -52 -9t-42 2l-2 49q-74 -60 -136.5 -60t-89 35.5t-26.5 108.5zM362 528l-114 63
q-33 -18 -114 -63q-16 18 -20 37q18 15 48 39q60 51 86 78q26 -27 71 -64.5l63 -52.5q-5 -21 -20 -37z" />
    <glyph glyph-name="udieresis" unicode="&#xfc;" horiz-adv-x="502" 
d="M82 129l1 81q0 153 -18 248q23 9 51 9t55 -3q-15 -137 -15 -233t13.5 -135t60 -39t107.5 61q2 30 2 89q0 165 -18 251q38 10 63 10t43 -4q-15 -136 -15 -244.5t18 -216.5q-30 -9 -52 -9t-42 2l-2 49q-74 -60 -136.5 -60t-89 35.5t-26.5 108.5zM374 607q0 -55 -58 -55
q-45 0 -45 46q0 56 58 56q45 0 45 -47zM224 607q0 -55 -58 -55q-45 0 -45 46q0 56 58 56q45 0 45 -47z" />
    <glyph glyph-name="yacute" unicode="&#xfd;" horiz-adv-x="443" 
d="M180 -160.5q-40 -49.5 -95 -49.5t-103 32q4 58 33 83q30 -41 73 -41q23 0 52 39t47 91q-26 92 -77.5 227.5t-98.5 230.5q40 17 72.5 17t43.5 -1q10 -143 99 -357h4q33 63 64.5 173t35.5 183q18 2 27 2q47 0 78 -17q-25 -56 -89 -216.5t-95 -253.5t-71 -142.5zM185 528
q-15 16 -20 37q19 13 48 32t43 29q40 28 73 56q21 -18 30 -34.5t10 -44.5q-60 -24 -184 -75z" />
    <glyph glyph-name="thorn" unicode="&#xfe;" horiz-adv-x="494" 
d="M60 -208q20 187 20 440t-3 311t-15 129q26 10 52 10t54 -2q-15 -119 -15 -270q77 68 145 68q141 0 141 -240q0 -92 -37 -167q-19 -40 -59 -63t-89.5 -23t-101.5 24q4 -147 17 -209q-22 -10 -56.5 -10t-52.5 2zM245 57q109 0 109 194q0 118 -38 149q-19 14 -48 14t-61 -19
t-54 -46q-2 -83 -2 -269q58 -23 94 -23z" />
    <glyph glyph-name="ydieresis" unicode="&#xff;" horiz-adv-x="441" 
d="M181 -160.5q-40 -49.5 -95 -49.5t-103 32q4 58 33 83q30 -41 73 -41q23 0 52 39t47 91q-26 92 -77.5 227.5t-98.5 230.5q40 17 72.5 17t43.5 -1q10 -143 99 -357h4q33 63 64.5 173t35.5 183q18 2 27 2q47 0 78 -17q-25 -56 -89 -216.5t-95 -253.5t-71 -142.5zM215 607
q0 -55 -58 -55q-45 0 -45 46q0 56 58 56q45 0 45 -47zM365 607q0 -55 -58 -55q-45 0 -45 46q0 56 58 56q45 0 45 -47z" />
    <glyph glyph-name="dotlessi" unicode="&#x131;" horiz-adv-x="263" 
d="M173 256q0 -164 18 -250q-36 -10 -65 -10t-41 2q15 136 15 249.5t-18 210.5q34 10 61 10t45 -4q-15 -155 -15 -208z" />
    <glyph glyph-name="OE" unicode="&#x152;" horiz-adv-x="806" 
d="M482 76q35 -3 121 -3t139 9q8 -26 8 -50.5t-4 -42.5q-19 5 -80.5 9.5t-138.5 4.5t-130 -3q-41 -15 -100 -15t-104.5 19t-71.5 49t-41.5 77t-20 92t-4.5 105q0 328 245 328q41 0 79 -11q57 -5 140 -5q172 0 222 14q4 -18 4 -40t-8 -48q-53 9 -137 9t-119 -3
q-6 -57 -6 -206q21 -1 101 -1t130 11q5 -32 5 -52.5t-1 -33.5q-47 8 -129.5 8t-105.5 -2q0 -131 7 -219zM216 81q34 -22 88 -22t92 30q4 116 4 225t-13 254q-37 28 -87 28q-86 0 -126 -73t-40 -197q0 -193 82 -245z" />
    <glyph glyph-name="oe" unicode="&#x153;" horiz-adv-x="744" 
d="M233 478q106 0 151 -81q51 81 148 81q72 0 115.5 -43.5t44 -103t-10.5 -85.5q-75 -24 -149 -24t-111 5q0 -15 -1 -22q7 -148 113 -148q57 0 124 62q29 -30 37 -79q-83 -56 -169 -56q-102 0 -146 80q-44 -79 -146 -79q-113 0 -153 76q-35 65 -35 176q0 241 188 241z
M233 57q106 0 106 182.5t-106 182.5t-106 -182.5t106 -182.5zM525 422q-93 0 -104 -137q43 -5 97.5 -5t85.5 10q4 36 4 37q0 39 -20 67t-63 28z" />
    <glyph glyph-name="circumflex" unicode="&#x2c6;" horiz-adv-x="488" 
d="M358 528l-114 63q-33 -18 -114 -63q-16 18 -20 37q18 15 48 39q60 51 86 78q26 -27 71 -64.5l63 -52.5q-5 -21 -20 -37z" />
    <glyph glyph-name="ring" unicode="&#x2da;" horiz-adv-x="386" 
d="M257 673.5q17 -19.5 17 -60t-21.5 -63.5t-67.5 -23q-75 0 -75 83t89 83q41 0 58 -19.5zM197 656q-48 0 -48 -45q0 -26 9 -36.5t29 -10.5q48 0 48 48q0 44 -38 44z" />
    <glyph glyph-name="tilde" unicode="&#x2dc;" horiz-adv-x="508" 
d="M153 620.5q29 22.5 55 22.5t57.5 -16.5t48.5 -16.5q25 0 50 40q27 -12 34 -33q-14 -27 -43 -50t-55.5 -23t-58 16.5t-53 16.5t-46.5 -40q-25 12 -32 33q14 28 43 50.5z" />
    <glyph glyph-name="endash" unicode="&#x2013;" horiz-adv-x="502" 
d="M474 215q-98 9 -197.5 9t-166.5 -5t-86 -9q-4 14 -4 38t8 50q74 -9 175 -9t179 4.5t96 9.5q4 -18 4 -40t-8 -48z" />
    <glyph glyph-name="emdash" unicode="&#x2014;" horiz-adv-x="731" 
d="M697 215q-164 9 -298 9t-237 -5t-136 -9q-6 14 -6 38.5t14 49.5q123 -9 280 -9q304 0 391 14q6 -18 6 -40.5t-14 -47.5z" />
    <glyph glyph-name="quoteleft" unicode="&#x2018;" horiz-adv-x="261" 
d="M196 682q5 -15 5 -24.5t-3 -24.5q-67 0 -67 -69q0 -25 26 -28q38 -3 38 -49q0 -35 -16.5 -53.5t-59.5 -18.5q-59 0 -59 80t32 133.5t104 53.5z" />
    <glyph glyph-name="quoteright" unicode="&#x2019;" horiz-adv-x="261" 
d="M65 415q-5 15 -5 24.5t3 24.5q67 0 67 69q0 25 -26 28q-38 3 -38 49q0 35 16.5 53.5t59.5 18.5q59 0 59 -80t-32 -133.5t-104 -53.5z" />
    <glyph glyph-name="quotesinglbase" unicode="&#x201a;" horiz-adv-x="281" 
d="M85 -152q-5 15 -5 24.5t3 24.5q67 0 67 69q0 25 -26 28q-38 3 -38 49q0 35 16.5 53.5t59.5 18.5q59 0 59 -80t-32 -133.5t-104 -53.5z" />
    <glyph glyph-name="quotedblleft" unicode="&#x201c;" horiz-adv-x="442" 
d="M196 682q5 -15 5 -24.5t-3 -24.5q-67 0 -67 -69q0 -25 26 -28q38 -3 38 -49q0 -35 -16.5 -53.5t-59.5 -18.5q-59 0 -59 80t32 133.5t104 53.5zM377 682q5 -15 5 -24.5t-3 -24.5q-67 0 -67 -69q0 -25 26 -28q38 -3 38 -49q0 -35 -16.5 -53.5t-59.5 -18.5q-59 0 -59 80
t32 133.5t104 53.5z" />
    <glyph glyph-name="quotedblright" unicode="&#x201d;" horiz-adv-x="442" 
d="M65 415q-5 15 -5 24.5t3 24.5q67 0 67 69q0 25 -26 28q-38 3 -38 49q0 35 16.5 53.5t59.5 18.5q59 0 59 -80t-32 -133.5t-104 -53.5zM246 415q-5 15 -5 24.5t3 24.5q67 0 67 69q0 25 -26 28q-38 3 -38 49q0 35 16.5 53.5t59.5 18.5q59 0 59 -80t-32 -133.5t-104 -53.5z
" />
    <glyph glyph-name="quotedblbase" unicode="&#x201e;" horiz-adv-x="462" 
d="M85 -152q-5 15 -5 24.5t3 24.5q67 0 67 69q0 25 -26 28q-38 3 -38 49q0 35 16.5 53.5t59.5 18.5q59 0 59 -80t-32 -133.5t-104 -53.5zM266 -152q-5 15 -5 24.5t3 24.5q67 0 67 69q0 25 -26 28q-38 3 -38 49q0 35 16.5 53.5t59.5 18.5q59 0 59 -80t-32 -133.5t-104 -53.5z
" />
    <glyph glyph-name="bullet" unicode="&#x2022;" horiz-adv-x="302" 
d="M242 335q0 -43 -25 -70.5t-77 -27.5q-80 0 -80 81q0 101 102 101q80 0 80 -84z" />
    <glyph glyph-name="guilsinglleft" unicode="&#x2039;" horiz-adv-x="298" 
d="M228 426q-79 -142 -81 -146q33 -62 81 -146q-23 -21 -48 -26q-18 22 -41 50t-35 44q-30 36 -74 78q44 42 65 68t44 54t41 50q28 -8 48 -26z" />
    <glyph glyph-name="guilsinglright" unicode="&#x203a;" horiz-adv-x="298" 
d="M70 426q20 18 48 26q18 -22 41 -50t35 -44q30 -36 74 -78q-44 -42 -65 -68t-44 -54t-41 -50q-25 5 -48 26q48 84 81 146q-2 4 -81 146z" />
    <glyph glyph-name="fraction" unicode="&#x2044;" horiz-adv-x="889" 
d="M335 -46q-34 0 -57 19q124 292 254 713q16 2 26 2q28 0 53 -18q-121 -279 -255 -714q-16 -2 -21 -2z" />
    <glyph glyph-name="Euro" unicode="&#x20ac;" horiz-adv-x="590" 
d="M328 655q97 0 142.5 -44.5t45.5 -102.5q0 -13 -3 -25q-17 -9 -46 -9t-44 4q1 8 1 19q0 45 -24 72t-72 27q-143 0 -163 -201q112 2 191 8q7 -14 7 -34.5t-4 -35.5q-97 4 -197 6v-13q0 -36 3 -70q63 -1 190 -1q8 -16 8 -30t-3 -26q-126 0 -186 -1q32 -139 154 -139
q39 0 81 19t71 52q31 -25 40 -79q-89 -66 -197 -66t-163.5 55t-71.5 155l-61 -4q-7 14 -7 34.5t4 35.5q57 -3 58 -3q-2 22 -2 69v12h-52q-8 16 -8 30t3 26h60q24 260 245 260z" />
    <glyph glyph-name="minus" unicode="&#x2212;" 
d="M507 286q-92 9 -178.5 9t-153.5 -4.5t-85 -9.5q-3 14 -3 40t7 48q69 -9 167 -9q200 0 250 14q3 -14 3 -40t-7 -48z" />
    <glyph glyph-name="HT" horiz-adv-x="149" 
 />
    </font>
</defs>
</svg>
